<svg width="406" height="306" viewBox="0 0 406 306" fill="none" xmlns="http://www.w3.org/2000/svg">
<path d="M76.4092 110.37C76.2214 111.522 76.3476 112.704 76.7746 113.791C78.2667 118.541 89.3809 136.76 89.0967 122.55C89.0155 118.338 77.9216 104.118 76.4092 110.37Z" fill="white"/>
<path d="M87.29 128.386C83.5548 128.386 77.2923 117.079 76.3077 113.923C75.851 112.744 75.7212 111.464 75.9321 110.218C76.3889 108.36 77.5866 108.188 78.2768 108.279C82.0932 108.695 89.5738 118.754 89.655 122.55C89.7362 126.346 89.0459 128.122 87.564 128.366L87.29 128.386ZM76.9167 110.461C76.7493 111.524 76.8756 112.612 77.2821 113.608C78.5306 117.668 84.9048 127.716 87.3712 127.331C87.7569 127.27 88.6602 126.671 88.579 122.57C88.508 119.373 81.3421 109.67 78.1347 109.375C77.7084 109.375 77.1907 109.375 76.9167 110.512V110.461Z" fill="#231F20"/>
<path d="M200.432 153.568L127.555 166.895C127.555 166.895 103.936 132.862 103.195 133.502C95.9581 139.592 86.6302 147.154 86.6302 147.154C86.6302 147.154 93.5221 192.95 111.477 202.096C129.433 211.241 185.451 188.748 185.451 188.748L200.432 153.568Z" fill="url(#paint0_linear)"/>
<path d="M260.094 156.238L298.41 178.822L310.59 116.612L329.418 123.717C329.418 123.717 333.042 235.682 312.468 232.992C291.894 230.302 242.585 200.888 242.585 200.888L260.094 156.238Z" fill="url(#paint1_linear)"/>
<path d="M200.432 153.569C200.432 153.569 175.565 152.259 157.802 197.66C140.04 243.061 127.768 272.324 127.768 272.324L240.433 283.489C240.433 283.489 254.024 232.739 259.901 195.072C262.875 175.99 263.88 160.268 260.124 156.197C248.929 144.119 200.432 153.569 200.432 153.569Z" fill="url(#paint2_linear)"/>
<path d="M243.488 272.1H243.336C243.203 272.06 243.092 271.97 243.025 271.848C242.959 271.727 242.943 271.584 242.981 271.451L268.782 183.663C268.822 183.531 268.913 183.419 269.034 183.353C269.156 183.286 269.299 183.27 269.432 183.308C269.498 183.327 269.56 183.358 269.614 183.401C269.668 183.444 269.713 183.497 269.746 183.558C269.779 183.618 269.8 183.685 269.807 183.754C269.814 183.822 269.807 183.892 269.787 183.958L243.986 271.755C243.95 271.857 243.882 271.946 243.793 272.008C243.703 272.07 243.597 272.102 243.488 272.1Z" fill="#231F20"/>
<path d="M130.691 265.665C130.631 265.679 130.569 265.679 130.509 265.665C130.378 265.615 130.273 265.515 130.216 265.388C130.159 265.261 130.155 265.116 130.204 264.985L166.257 173.117C166.28 173.052 166.317 172.992 166.365 172.941C166.412 172.891 166.469 172.85 166.533 172.823C166.597 172.795 166.666 172.781 166.735 172.781C166.805 172.781 166.873 172.795 166.937 172.823C167.065 172.873 167.168 172.971 167.223 173.097C167.278 173.223 167.281 173.365 167.231 173.493L131.189 265.371C131.142 265.462 131.071 265.538 130.983 265.59C130.895 265.643 130.794 265.668 130.691 265.665Z" fill="#231F20"/>
<path d="M186.09 146.707C186.09 146.088 186.09 145.489 186.09 144.91C185.993 142.786 186.293 140.663 186.973 138.648C188.075 136.345 189.762 134.371 191.865 132.923C200.17 126.612 210.15 122.888 220.559 122.215C230.943 121.574 241.336 123.31 250.949 127.29C255.388 128.939 259.508 131.343 263.129 134.395C266.403 137.435 268.914 141.203 270.459 145.395C272.004 149.587 272.539 154.084 272.02 158.522C271.665 161.567 271.523 166.51 270.284 169.342C268.112 174.274 261.697 174.102 257.363 175.432C253.029 176.761 249.629 179.857 245.61 181.846C241.986 183.653 237.074 183.247 233.085 183.552C223.341 184.303 212.703 183.947 204.665 178.395C199.173 174.609 198.219 167.555 195.144 162.105C193.398 159.06 191.084 158.156 188.82 155.944C186.557 153.731 186.1 149.955 186.09 146.707Z" fill="url(#paint3_linear)"/>
<path d="M209.963 185.125C210.424 186.796 211.273 188.336 212.441 189.618C213.608 190.9 215.061 191.889 216.682 192.504C218.258 192.933 219.905 193.037 221.522 192.81C223.14 192.583 224.694 192.03 226.091 191.185C228.859 189.484 231.271 187.264 233.196 184.648C235.997 181.133 238.355 177.288 240.22 173.199C241.539 170.592 242.326 167.749 242.534 164.835C242.63 163.398 242.407 161.957 241.88 160.617C241.354 159.276 240.537 158.068 239.489 157.081C233.744 152.127 218.276 152.229 212.967 158.583C207.994 164.551 207.872 178.507 209.963 185.125Z" fill="#231F20"/>
<path d="M219.687 193.488C218.612 193.493 217.543 193.329 216.52 193.001C214.819 192.363 213.293 191.332 212.066 189.991C210.84 188.65 209.949 187.039 209.466 185.287C207.334 178.558 207.496 164.338 212.582 158.237C214.926 155.446 219.362 153.589 224.762 153.162C230.852 152.665 236.769 154.056 239.844 156.705C240.949 157.736 241.813 158.999 242.372 160.402C242.932 161.806 243.175 163.316 243.082 164.825C242.86 167.81 242.057 170.724 240.717 173.402C238.827 177.526 236.441 181.405 233.612 184.952C231.652 187.639 229.174 189.906 226.325 191.621C224.307 192.798 222.022 193.441 219.687 193.488ZM210.46 184.973C210.898 186.564 211.704 188.03 212.813 189.252C213.922 190.474 215.303 191.417 216.845 192.007C218.351 192.411 219.923 192.506 221.467 192.286C223.011 192.066 224.494 191.536 225.827 190.728C228.561 189.079 230.938 186.901 232.821 184.323C235.588 180.839 237.923 177.032 239.773 172.985C241.06 170.437 241.833 167.661 242.047 164.815C242.14 163.454 241.93 162.09 241.431 160.821C240.933 159.552 240.158 158.41 239.164 157.476C236.292 155 230.679 153.711 224.863 154.188C219.727 154.614 215.545 156.329 213.394 158.918C208.522 164.744 208.4 178.456 210.46 184.973Z" fill="#231F20"/>
<path d="M258.926 136.05C261.677 131.421 264.783 126.915 266.904 122.043C269.026 117.171 270.091 111.619 268.579 106.655C268.068 104.607 266.845 102.808 265.128 101.58C264.222 100.984 263.158 100.672 262.074 100.683C260.989 100.694 259.932 101.027 259.038 101.641C258.211 99.3602 256.763 97.3562 254.856 95.8556C250.527 91.9194 245.177 89.2813 239.418 88.2431C233.449 87.2009 227.305 88.3971 222.163 91.6028C220.072 92.9629 218.205 94.6478 215.992 95.8049C214.132 96.7563 212.072 97.2524 209.983 97.2524C207.894 97.2524 205.834 96.7563 203.974 95.8049C202.493 103.478 205.142 111.355 209.841 117.414C214.541 123.474 221.128 127.889 228.04 131.452C231.643 133.467 235.568 134.841 239.642 135.512C243.863 136.188 248.182 135.21 251.7 132.781" fill="white"/>
<path d="M258.926 136.567C258.834 136.569 258.742 136.545 258.663 136.496C258.602 136.462 258.55 136.415 258.508 136.36C258.466 136.305 258.436 136.242 258.419 136.175C258.402 136.107 258.398 136.037 258.409 135.969C258.419 135.9 258.443 135.835 258.48 135.776C259.201 134.568 259.941 133.36 260.693 132.162C262.85 128.866 264.764 125.416 266.417 121.84C268.092 117.973 269.726 112.218 268.072 106.808C267.584 104.898 266.442 103.221 264.844 102.068C264.035 101.529 263.085 101.241 262.114 101.241C261.142 101.241 260.192 101.529 259.383 102.068C259.314 102.118 259.234 102.152 259.149 102.166C259.065 102.18 258.978 102.174 258.896 102.149C258.816 102.123 258.744 102.078 258.686 102.017C258.628 101.957 258.585 101.884 258.561 101.804C257.749 99.615 256.343 97.696 254.501 96.2617C250.255 92.3829 244.998 89.7858 239.337 88.771C233.512 87.7794 227.526 88.9643 222.518 92.1002C221.727 92.6179 220.955 93.1964 220.204 93.7547C218.978 94.7251 217.671 95.5877 216.297 96.3328C214.464 97.2516 212.452 97.7553 210.403 97.8079C208.354 97.8605 206.318 97.4608 204.441 96.6373C203.345 103.448 205.456 110.847 210.328 117.14C214.388 122.378 220.113 126.793 228.345 131.036C231.894 133.04 235.764 134.414 239.784 135.096C243.868 135.754 248.048 134.812 251.456 132.467C251.568 132.397 251.703 132.372 251.832 132.397C251.962 132.422 252.078 132.494 252.157 132.6C252.236 132.706 252.272 132.837 252.259 132.968C252.246 133.1 252.184 133.221 252.085 133.309C248.457 135.812 244.005 136.823 239.652 136.131C235.513 135.433 231.526 134.025 227.867 131.969C219.494 127.656 213.657 123.139 209.506 117.759C204.299 111.06 202.117 103.022 203.528 95.7339C203.544 95.6526 203.579 95.5762 203.63 95.511C203.681 95.4457 203.747 95.3934 203.822 95.3584C203.894 95.321 203.974 95.3015 204.056 95.3015C204.137 95.3015 204.217 95.321 204.289 95.3584C206.076 96.2643 208.051 96.7364 210.054 96.7364C212.058 96.7364 214.033 96.2643 215.819 95.3584C217.142 94.6414 218.399 93.8092 219.575 92.8716C220.336 92.3032 221.128 91.7145 221.95 91.1867C227.192 87.9185 233.456 86.7004 239.54 87.7662C245.398 88.812 250.839 91.4973 255.232 95.5106C257.014 96.9465 258.427 98.7874 259.353 100.88C260.304 100.389 261.368 100.158 262.437 100.21C263.506 100.262 264.543 100.594 265.443 101.174C267.262 102.457 268.565 104.346 269.117 106.503C270.863 112.218 269.117 118.226 267.422 122.256C265.75 125.878 263.813 129.373 261.626 132.71C260.875 133.908 260.134 135.106 259.414 136.314C259.365 136.398 259.294 136.467 259.207 136.512C259.121 136.557 259.023 136.576 258.926 136.567Z" fill="#231F20"/>
<path d="M219.291 149.691L212.49 162.785C212.49 162.785 207.293 178.426 219.991 179.025C232.689 179.624 240.555 167.667 240.555 167.667L253.679 138.161C253.679 138.161 246.574 131.107 255.486 113.202C244.631 114.547 233.615 112.995 223.554 108.706C223.554 108.706 211.313 127.392 209.658 136.76C208.004 146.129 219.291 149.691 219.291 149.691Z" fill="white"/>
<path d="M220.823 179.512C220.539 179.512 220.255 179.512 219.961 179.512C216.601 179.37 214.135 178.182 212.622 175.99C209.242 171.098 211.881 162.978 212.003 162.633L218.55 149.955C216.205 149.042 207.649 145.083 209.141 136.649C210.795 127.28 222.61 109.162 223.117 108.391C223.184 108.288 223.285 108.213 223.402 108.178C223.519 108.142 223.645 108.15 223.757 108.198C233.73 112.429 244.639 113.969 255.394 112.664C255.489 112.646 255.588 112.655 255.678 112.691C255.768 112.727 255.845 112.788 255.902 112.867C255.953 112.949 255.98 113.044 255.98 113.141C255.98 113.238 255.953 113.333 255.902 113.415C251.375 122.479 251.111 128.64 251.679 132.193C251.912 134.245 252.738 136.184 254.055 137.775C254.129 137.852 254.178 137.949 254.197 138.054C254.215 138.159 254.201 138.267 254.156 138.364L241.032 167.87C240.91 168.073 233.166 179.512 220.823 179.512ZM223.757 109.355C222.041 112.014 211.668 128.417 210.176 136.852C208.613 145.662 219.311 149.153 219.453 149.184C219.525 149.21 219.591 149.251 219.647 149.303C219.702 149.355 219.747 149.418 219.778 149.488C219.81 149.556 219.827 149.631 219.827 149.706C219.827 149.782 219.81 149.857 219.778 149.925L212.977 163.018C212.977 163.018 210.42 170.915 213.505 175.381C214.825 177.289 217.017 178.324 220.032 178.426C232.313 178.984 240.058 167.474 240.139 167.352L253.09 138.232C251.872 136.77 247.061 129.544 254.603 113.872C244.105 114.937 233.508 113.385 223.757 109.355Z" fill="#231F20"/>
<path d="M232.618 123.464C232.618 123.464 223.645 132.051 224.833 134.04C226.02 136.029 230.74 135.694 230.74 135.694" fill="white"/>
<path d="M229.908 136.232C228.395 136.232 225.421 135.999 224.406 134.294C223.107 132.132 230.09 125.159 232.262 123.129C232.31 123.081 232.366 123.043 232.428 123.018C232.489 122.992 232.556 122.979 232.623 122.979C232.69 122.979 232.756 122.992 232.818 123.018C232.88 123.043 232.936 123.081 232.983 123.129C233.031 123.176 233.068 123.232 233.094 123.294C233.12 123.356 233.133 123.422 233.133 123.489C233.133 123.556 233.12 123.622 233.094 123.684C233.068 123.746 233.031 123.802 232.983 123.849C228.791 127.859 224.711 132.822 225.289 133.796C226.142 135.207 229.502 135.298 230.72 135.207C230.854 135.201 230.985 135.248 231.085 135.337C231.185 135.426 231.247 135.55 231.258 135.684C231.263 135.75 231.255 135.817 231.235 135.88C231.214 135.943 231.181 136.001 231.138 136.052C231.094 136.102 231.041 136.143 230.981 136.172C230.922 136.201 230.857 136.218 230.791 136.222C230.659 136.212 230.344 136.232 229.908 136.232Z" fill="#231F20"/>
<path d="M244.195 122.994C244.488 121.51 244.2 120.202 243.551 120.074C242.902 119.945 242.139 121.045 241.845 122.53C241.552 124.015 241.84 125.322 242.489 125.451C243.138 125.579 243.902 124.479 244.195 122.994Z" fill="#231F20"/>
<path d="M225.697 120.65C225.969 119.167 225.665 117.868 225.017 117.749C224.368 117.63 223.622 118.736 223.35 120.219C223.077 121.702 223.382 123.001 224.03 123.12C224.678 123.239 225.425 122.133 225.697 120.65Z" fill="#231F20"/>
<path d="M247.711 131.279C249.34 129.806 251.225 128.643 253.273 127.848C254.355 127.355 255.559 127.189 256.734 127.371C257.639 127.624 258.45 128.136 259.069 128.843C260.01 129.837 260.718 131.027 261.143 132.327C261.568 133.628 261.698 135.007 261.525 136.364C261.386 137.655 260.925 138.891 260.185 139.957C258.911 141.605 257.126 142.783 255.11 143.307C253.117 143.808 251.074 144.08 249.02 144.119" fill="white"/>
<path d="M248.929 144.647C248.818 144.615 248.721 144.549 248.652 144.457C248.583 144.365 248.546 144.254 248.546 144.139C248.546 144.024 248.583 143.913 248.652 143.821C248.721 143.73 248.818 143.663 248.929 143.632C250.959 143.593 252.978 143.324 254.948 142.83C256.865 142.35 258.568 141.247 259.789 139.693C260.473 138.688 260.901 137.532 261.038 136.324C261.2 135.042 261.076 133.74 260.676 132.512C260.276 131.284 259.609 130.159 258.723 129.219C258.172 128.587 257.449 128.129 256.643 127.899C255.572 127.751 254.481 127.91 253.496 128.356C251.499 129.127 249.659 130.255 248.066 131.685C247.961 131.762 247.832 131.797 247.703 131.784C247.574 131.771 247.454 131.712 247.367 131.616C247.279 131.521 247.229 131.397 247.227 131.267C247.225 131.138 247.271 131.012 247.355 130.914C249.039 129.401 250.982 128.204 253.09 127.382C254.266 126.852 255.572 126.679 256.846 126.884C257.855 127.147 258.761 127.71 259.444 128.498C260.439 129.548 261.188 130.805 261.639 132.179C262.09 133.553 262.232 135.01 262.053 136.445C261.895 137.823 261.4 139.141 260.611 140.282C259.257 142.034 257.356 143.284 255.212 143.835C253.164 144.34 251.067 144.619 248.959 144.667L248.929 144.647Z" fill="#231F20"/>
<path d="M219.291 149.691C219.291 149.691 230.1 153.162 237.226 151.061C237.226 151.061 225.756 163.13 212.49 162.785L219.291 149.691Z" fill="#231F20"/>
<path d="M213.069 163.312H212.48C212.392 163.312 212.305 163.288 212.228 163.244C212.152 163.199 212.088 163.135 212.044 163.059C212.001 162.981 211.979 162.894 211.979 162.805C211.979 162.716 212.001 162.629 212.044 162.551L218.834 149.458C218.892 149.348 218.987 149.261 219.101 149.213C219.216 149.165 219.344 149.158 219.463 149.194C219.565 149.194 230.202 152.604 237.084 150.574C237.194 150.539 237.313 150.542 237.422 150.582C237.53 150.623 237.622 150.699 237.683 150.798C237.741 150.898 237.766 151.014 237.753 151.129C237.74 151.244 237.691 151.352 237.612 151.437C237.134 151.914 226.152 163.312 213.069 163.312ZM219.555 150.32L213.353 162.257C223.3 162.135 232.212 154.969 235.48 151.985C229.228 153 221.463 150.889 219.555 150.32Z" fill="#231F20"/>
<path d="M201.985 180.131C201.865 180.131 201.749 180.09 201.657 180.014C201.564 179.938 201.501 179.832 201.477 179.715C199.047 170.326 194.341 161.681 187.775 154.543C187.726 154.495 187.686 154.437 187.66 154.373C187.633 154.31 187.619 154.241 187.619 154.172C187.619 154.103 187.633 154.035 187.66 153.971C187.686 153.908 187.726 153.85 187.775 153.802C187.875 153.707 188.008 153.654 188.145 153.654C188.283 153.654 188.416 153.707 188.516 153.802C195.218 161.084 200.019 169.909 202.492 179.492C202.507 179.559 202.509 179.629 202.496 179.696C202.484 179.764 202.458 179.829 202.42 179.887C202.382 179.944 202.333 179.994 202.276 180.032C202.219 180.071 202.154 180.097 202.087 180.111L201.985 180.131Z" fill="#231F20"/>
<path d="M236.881 189.266C236.762 189.27 236.647 189.23 236.556 189.154C236.501 189.112 236.455 189.059 236.421 188.998C236.387 188.937 236.365 188.87 236.358 188.801C236.35 188.732 236.357 188.662 236.377 188.595C236.397 188.529 236.43 188.467 236.475 188.413C244.98 179.07 255.819 172.158 267.879 168.388C268.012 168.349 268.155 168.363 268.278 168.427C268.401 168.492 268.494 168.601 268.539 168.733C268.56 168.799 268.569 168.868 268.563 168.937C268.558 169.007 268.538 169.074 268.506 169.136C268.474 169.197 268.429 169.252 268.376 169.296C268.322 169.34 268.26 169.373 268.193 169.392C256.329 173.097 245.662 179.889 237.287 189.073C237.238 189.134 237.177 189.184 237.106 189.217C237.036 189.25 236.959 189.267 236.881 189.266Z" fill="#231F20"/>
<path d="M228.436 125.321C228.274 125.331 228.111 125.331 227.949 125.321L216.51 123.504C216.113 123.442 215.733 123.303 215.391 123.094C215.049 122.885 214.751 122.61 214.515 122.286C214.28 121.961 214.11 121.593 214.017 121.203C213.924 120.813 213.909 120.409 213.972 120.013L214.754 115.12C214.881 114.324 215.319 113.61 215.972 113.137C216.624 112.663 217.438 112.467 218.235 112.593L229.674 114.4C230.07 114.461 230.451 114.601 230.793 114.81C231.135 115.019 231.433 115.294 231.668 115.618C231.904 115.943 232.074 116.31 232.167 116.7C232.26 117.091 232.275 117.495 232.212 117.891L231.42 122.753C231.307 123.467 230.943 124.117 230.395 124.587C229.846 125.058 229.148 125.318 228.426 125.321H228.436ZM228.111 124.306C228.377 124.343 228.648 124.327 228.908 124.258C229.168 124.19 229.412 124.071 229.625 123.907C229.838 123.744 230.017 123.54 230.151 123.307C230.285 123.074 230.371 122.817 230.405 122.55L231.176 117.658C231.253 117.134 231.122 116.601 230.811 116.172C230.5 115.744 230.034 115.454 229.512 115.364L218.073 113.557C217.815 113.513 217.55 113.521 217.295 113.582C217.04 113.643 216.801 113.756 216.591 113.912C216.377 114.064 216.195 114.257 216.057 114.48C215.92 114.703 215.828 114.952 215.789 115.212L215.007 120.114C214.934 120.636 215.066 121.167 215.377 121.593C215.688 122.019 216.152 122.308 216.672 122.398L228.111 124.306Z" fill="#231F20"/>
<path d="M248.827 128.559C248.665 128.574 248.502 128.574 248.34 128.559L236.901 126.742C236.105 126.615 235.391 126.177 234.917 125.524C234.443 124.871 234.248 124.057 234.374 123.261L235.145 118.368C235.202 117.966 235.339 117.579 235.549 117.23C235.758 116.881 236.035 116.578 236.363 116.338C236.687 116.102 237.055 115.931 237.445 115.837C237.835 115.743 238.24 115.727 238.637 115.79L250.076 117.607C250.872 117.734 251.586 118.172 252.059 118.825C252.533 119.478 252.729 120.292 252.603 121.088L251.832 125.991C251.774 126.393 251.637 126.78 251.428 127.129C251.219 127.478 250.942 127.781 250.614 128.021C250.089 128.383 249.464 128.571 248.827 128.559ZM248.502 127.483C249.027 127.564 249.563 127.437 249.994 127.128C250.423 126.813 250.711 126.343 250.796 125.818L251.568 120.926C251.641 120.404 251.509 119.873 251.198 119.447C250.887 119.021 250.423 118.732 249.903 118.642L238.464 116.825C237.942 116.752 237.411 116.884 236.985 117.195C236.559 117.506 236.27 117.97 236.18 118.49L235.399 123.382C235.325 123.905 235.458 124.435 235.768 124.861C236.079 125.288 236.544 125.576 237.063 125.666L248.502 127.483Z" fill="#231F20"/>
<path d="M235.663 118.927C235.597 118.929 235.531 118.917 235.47 118.893C235.409 118.868 235.354 118.831 235.307 118.785C233.47 117.059 232.08 118.135 232.019 118.186C231.966 118.229 231.904 118.261 231.839 118.28C231.773 118.299 231.704 118.305 231.637 118.297C231.569 118.29 231.503 118.269 231.443 118.236C231.383 118.203 231.331 118.158 231.288 118.105C231.244 118.052 231.211 117.991 231.191 117.925C231.171 117.859 231.164 117.79 231.172 117.722C231.18 117.653 231.201 117.587 231.235 117.527C231.269 117.468 231.314 117.415 231.369 117.374C232.11 116.775 234.029 116.146 236.018 118.023C236.097 118.094 236.152 118.187 236.176 118.29C236.201 118.392 236.193 118.5 236.155 118.599C236.116 118.697 236.048 118.781 235.96 118.84C235.872 118.898 235.768 118.929 235.663 118.927Z" fill="#231F20"/>
<path d="M228.517 141.175C225.812 141.095 223.13 140.64 220.549 139.825C220.183 139.706 219.81 139.608 219.433 139.531C219.334 139.55 219.231 139.54 219.138 139.502C219.044 139.464 218.963 139.4 218.905 139.318C218.831 139.205 218.805 139.067 218.831 138.934C218.858 138.801 218.935 138.684 219.047 138.607C219.331 138.415 219.626 138.496 220.834 138.841C224.894 139.998 235.521 143.073 238.85 132.751C238.869 132.687 238.902 132.627 238.945 132.576C238.988 132.525 239.041 132.483 239.1 132.452C239.16 132.422 239.225 132.404 239.292 132.4C239.359 132.395 239.426 132.404 239.489 132.426C239.552 132.446 239.611 132.478 239.661 132.52C239.711 132.562 239.753 132.614 239.783 132.673C239.813 132.731 239.832 132.795 239.837 132.861C239.842 132.927 239.835 132.993 239.814 133.055C237.723 139.551 232.943 141.175 228.517 141.175Z" fill="#231F20"/>
<path d="M78.155 40.6701L95.7754 258.164L320.608 239.976L303.008 22.4712L78.155 40.6701ZM299.963 197.995L109.326 213.423L99.8456 95.876L290.483 80.448L299.963 197.995Z" fill="white"/>
<path d="M95.7754 258.672C95.6442 258.68 95.5145 258.64 95.41 258.56C95.3078 258.469 95.2458 258.341 95.2375 258.205L77.678 40.7106C77.6724 40.644 77.6801 40.5768 77.7006 40.5131C77.7211 40.4494 77.754 40.3904 77.7974 40.3395C77.8408 40.2885 77.8938 40.2467 77.9535 40.2163C78.0131 40.1859 78.0781 40.1677 78.1449 40.1625L302.967 21.9737C303.1 21.9624 303.233 22.004 303.335 22.0896C303.438 22.1751 303.503 22.2976 303.515 22.4305L321.116 239.935C321.121 240.002 321.113 240.069 321.093 240.132C321.072 240.196 321.04 240.255 320.996 240.306C320.953 240.357 320.9 240.399 320.84 240.429C320.78 240.46 320.715 240.478 320.649 240.483L95.816 258.672H95.7754ZM78.7336 41.1268L96.2423 257.626L320.06 239.509L302.541 23.0192L78.7336 41.1268ZM109.356 213.9C109.236 213.902 109.12 213.858 109.031 213.778C108.98 213.736 108.937 213.683 108.905 213.624C108.874 213.565 108.855 213.5 108.849 213.433L99.3381 95.9165C99.3325 95.8498 99.3402 95.7827 99.3607 95.719C99.3812 95.6553 99.4141 95.5963 99.4575 95.5453C99.5009 95.4944 99.5539 95.4525 99.6135 95.4221C99.6732 95.3918 99.7382 95.3735 99.805 95.3684L290.442 79.9201C290.578 79.9106 290.713 79.9542 290.818 80.0419C290.918 80.1304 290.979 80.254 290.99 80.387L300.501 197.934C300.506 198.001 300.499 198.068 300.478 198.132C300.458 198.195 300.425 198.254 300.382 198.305C300.338 198.356 300.285 198.398 300.225 198.428C300.166 198.459 300.101 198.477 300.034 198.482L109.397 213.9H109.356ZM100.394 96.3428L109.823 212.885L299.425 197.538L290.026 80.996L100.394 96.3428Z" fill="#231F20"/>
<path d="M106.078 63.396C111.386 63.396 115.69 59.0925 115.69 53.7839C115.69 48.4753 111.386 44.1719 106.078 44.1719C100.769 44.1719 96.4656 48.4753 96.4656 53.7839C96.4656 59.0925 100.769 63.396 106.078 63.396Z" fill="#D1D3D4"/>
<path d="M99.47 70.034C99.3354 70.034 99.2063 69.9805 99.1111 69.8853C99.016 69.7901 98.9625 69.6611 98.9625 69.5265C98.9625 69.3919 99.016 69.2628 99.1111 69.1676C99.2063 69.0724 99.3354 69.019 99.47 69.019L286.636 53.8752C286.703 53.8698 286.77 53.8777 286.833 53.8982C286.897 53.9188 286.956 53.9517 287.007 53.9951C287.058 54.0384 287.099 54.0914 287.13 54.1509C287.16 54.2105 287.179 54.2754 287.184 54.3421C287.189 54.4087 287.182 54.4757 287.161 54.5394C287.14 54.603 287.108 54.6619 287.064 54.7128C287.021 54.7637 286.968 54.8056 286.908 54.836C286.849 54.8664 286.784 54.8848 286.717 54.8902L99.5512 70.034H99.47Z" fill="#D1D3D4"/>
<path d="M100.485 82.2851C100.35 82.2851 100.221 82.2317 100.126 82.1365C100.031 82.0413 99.9775 81.9122 99.9775 81.7776C99.9775 81.643 100.031 81.514 100.126 81.4188C100.221 81.3236 100.35 81.2701 100.485 81.2701L248.32 69.3033C248.454 69.2948 248.586 69.3387 248.688 69.4258C248.791 69.513 248.855 69.6364 248.868 69.7702C248.873 69.8369 248.866 69.904 248.845 69.9677C248.825 70.0314 248.792 70.0904 248.748 70.1414C248.705 70.1923 248.652 70.2342 248.592 70.2645C248.533 70.2949 248.468 70.3132 248.401 70.3183L100.536 82.2851H100.485Z" fill="#D1D3D4"/>
<path d="M122.48 243.66C129.218 243.66 134.68 238.198 134.68 231.46C134.68 224.722 129.218 219.259 122.48 219.259C115.742 219.259 110.28 224.722 110.28 231.46C110.28 238.198 115.742 243.66 122.48 243.66Z" fill="url(#paint4_linear)"/>
<path d="M149.926 241.437C156.664 241.437 162.126 235.975 162.126 229.237C162.126 222.499 156.664 217.036 149.926 217.036C143.188 217.036 137.725 222.499 137.725 229.237C137.725 235.975 143.188 241.437 149.926 241.437Z" fill="url(#paint5_linear)"/>
<path d="M117.86 230.115L115.85 230.276C115.441 230.309 115.136 230.667 115.169 231.076L115.627 236.801C115.66 237.21 116.018 237.515 116.427 237.483L118.437 237.322C118.846 237.289 119.151 236.931 119.118 236.522L118.66 230.797C118.628 230.388 118.269 230.083 117.86 230.115Z" fill="white"/>
<path d="M120.277 230.313L120.785 236.23L129.23 235.55C129.23 235.55 130.62 228.445 129.473 228.029C128.326 227.613 124.967 228.029 124.967 228.029C124.967 228.029 126.225 223.116 124.865 222.954C123.505 222.791 121.973 227.471 120.277 230.313Z" fill="white"/>
<path d="M149.662 226.08L149.834 225.766C150.213 225.111 150.764 224.574 151.428 224.213C151.943 223.938 152.519 223.795 153.103 223.796C153.898 223.786 154.674 224.05 155.298 224.543C155.923 225.037 156.359 225.73 156.533 226.506C156.631 226.973 156.669 227.451 156.645 227.927C156.648 228.387 156.59 228.844 156.472 229.288C156.266 229.992 155.921 230.648 155.457 231.216C154.996 231.802 154.501 232.362 153.976 232.891C153.082 233.814 152.179 234.738 151.286 235.672C151.022 235.946 150.778 236.23 150.514 236.514V236.565L150.291 236.393C149.276 235.581 148.261 234.809 147.246 234.048C146.566 233.551 145.876 233.033 145.216 232.505C144.741 232.118 144.318 231.671 143.957 231.175C143.582 230.647 143.313 230.051 143.166 229.42C143.053 228.95 142.985 228.471 142.963 227.988C142.923 227.292 143.095 226.599 143.458 226.003C143.82 225.406 144.356 224.934 144.993 224.649C145.63 224.355 146.34 224.256 147.034 224.365C147.727 224.473 148.373 224.784 148.89 225.258C149.163 225.483 149.405 225.742 149.611 226.029L149.662 226.08Z" fill="white"/>
<path d="M172.111 44.1417L121.982 48.2014L122.475 54.2817L172.604 50.2219L172.111 44.1417Z" fill="#D1D3D4"/>
<path d="M171.109 228.029C170.983 228.027 170.862 227.978 170.77 227.891C170.678 227.805 170.621 227.688 170.611 227.562C170.604 227.496 170.611 227.429 170.63 227.365C170.649 227.302 170.681 227.243 170.724 227.191C170.766 227.14 170.819 227.098 170.878 227.068C170.937 227.037 171.002 227.019 171.068 227.014L207.06 224.101C207.126 224.095 207.193 224.103 207.256 224.124C207.319 224.144 207.377 224.177 207.427 224.221C207.478 224.264 207.518 224.317 207.548 224.377C207.577 224.437 207.594 224.501 207.598 224.568C207.609 224.701 207.568 224.833 207.482 224.936C207.397 225.038 207.274 225.103 207.141 225.116L171.139 228.029H171.109Z" fill="#D1D3D4"/>
<path d="M325.876 123.687C328.413 122.012 331.103 99.7531 323.521 94.6375C318.089 90.8574 312.861 86.7917 307.86 82.4575L308.57 91.288C308.57 91.288 300.653 88.4866 299.537 92.303C298.42 96.1194 300.176 101.55 310.032 109.294L310.62 116.643L325.876 123.687Z" fill="white"/>
<path d="M325.876 124.215C325.802 124.23 325.726 124.23 325.653 124.215L310.428 117.11C310.343 117.07 310.271 117.008 310.218 116.932C310.164 116.855 310.132 116.766 310.123 116.673L309.545 109.568C301.14 102.91 297.608 97.0533 299.049 92.161C299.164 91.7611 299.361 91.3899 299.629 91.0715C299.896 90.7532 300.228 90.495 300.602 90.3137C302.754 89.2074 306.429 90.0904 308.012 90.5573L307.352 82.4982C307.345 82.394 307.368 82.2898 307.42 82.1989C307.472 82.1081 307.549 82.0346 307.643 81.9878C307.736 81.9411 307.841 81.9232 307.945 81.9363C308.049 81.9495 308.146 81.9932 308.225 82.0618C313.21 86.395 318.42 90.4607 323.836 94.2418C328.413 97.3375 329.063 105.711 329.033 110.482C329.033 116.227 327.855 123.119 326.18 124.225C326.08 124.249 325.975 124.245 325.876 124.215ZM311.118 116.267L325.774 123.068C326.698 121.911 327.936 116.744 327.967 110.38C327.967 102.717 326.282 97.1345 323.227 95.0741C318.119 91.5266 313.2 87.7152 308.489 83.6553L309.098 91.2171C309.104 91.304 309.088 91.3909 309.053 91.4705C309.017 91.55 308.963 91.6198 308.895 91.6738C308.826 91.7286 308.744 91.7648 308.657 91.779C308.57 91.7933 308.481 91.785 308.398 91.755C308.398 91.755 303.404 90.0092 301.059 91.2069C300.814 91.327 300.596 91.4975 300.421 91.7074C300.247 91.9173 300.118 92.1619 300.044 92.4249C298.725 96.9112 302.196 102.433 310.367 108.858C310.423 108.902 310.469 108.957 310.502 109.02C310.535 109.083 310.555 109.152 310.56 109.223L311.118 116.267Z" fill="#231F20"/>
<path d="M85.4833 121.352L85.2194 121.22C77.4749 117.637 78.3479 131.523 79.0685 135.593C79.8704 140.018 82.2861 150.676 88.8937 146.179C96.1104 141.267 92.7913 125.077 85.4833 121.352Z" fill="white"/>
<path d="M85.8995 147.783C85.3657 147.785 84.8371 147.678 84.3465 147.468C81.7075 146.362 79.7587 142.393 78.561 135.684C78.0231 132.639 77.2618 123.504 80.7128 120.855C81.941 119.901 83.5345 119.84 85.4326 120.743L85.7168 120.885C89.8377 122.986 92.9943 129.005 93.4003 135.42C93.7251 140.495 92.1823 144.555 89.1881 146.585C88.2399 147.311 87.0922 147.729 85.8995 147.783ZM82.9255 121.159C82.3557 121.148 81.7996 121.334 81.3523 121.687C78.561 123.839 78.9772 132.071 79.5862 135.501C81.0072 143.398 83.23 145.895 84.7525 146.504C85.8893 146.981 87.1479 146.737 88.5994 145.743C91.279 143.916 92.6594 140.181 92.3549 135.481C91.9793 129.472 88.9851 123.727 85.2499 121.819L85.0063 121.697C84.359 121.372 83.6495 121.188 82.9255 121.159Z" fill="#231F20"/>
<path d="M132.072 184.313C131.939 184.313 131.81 184.263 131.712 184.173C131.614 184.082 131.554 183.958 131.544 183.826C131.179 178.619 127.108 167.18 127.068 167.068C127.044 167.003 127.033 166.935 127.036 166.866C127.038 166.797 127.055 166.729 127.084 166.667C127.114 166.604 127.155 166.549 127.206 166.502C127.257 166.456 127.317 166.421 127.382 166.398C127.513 166.355 127.656 166.363 127.78 166.422C127.905 166.48 128.002 166.585 128.052 166.713C128.225 167.19 132.214 178.395 132.589 183.755C132.595 183.823 132.587 183.893 132.565 183.958C132.543 184.024 132.509 184.084 132.463 184.136C132.418 184.188 132.363 184.231 132.301 184.261C132.239 184.291 132.171 184.309 132.102 184.313H132.072Z" fill="#231F20"/>
<path d="M195.124 191.519L175.027 186.657L173.321 191.519L193.682 196.95L195.124 191.519Z" fill="white"/>
<path d="M193.682 197.477H193.54L173.179 192.047C173.11 192.028 173.045 191.994 172.99 191.949C172.934 191.903 172.888 191.847 172.854 191.783C172.824 191.718 172.809 191.647 172.809 191.575C172.809 191.503 172.824 191.432 172.854 191.367L174.58 186.495C174.624 186.373 174.711 186.271 174.826 186.209C174.94 186.148 175.073 186.13 175.199 186.16L195.286 191.022C195.354 191.037 195.418 191.067 195.474 191.109C195.53 191.151 195.577 191.204 195.611 191.266C195.65 191.323 195.676 191.388 195.687 191.456C195.697 191.525 195.692 191.595 195.672 191.661L194.23 197.092C194.192 197.226 194.105 197.342 193.987 197.416C193.892 197.463 193.787 197.484 193.682 197.477ZM174.001 191.164L193.286 196.31L194.464 191.905L175.351 187.287L174.001 191.164Z" fill="#231F20"/>
<path d="M126.794 133.177C126.337 133.193 125.888 133.055 125.519 132.784C125.151 132.513 124.885 132.126 124.764 131.685L121.343 120.094C121.254 119.825 121.222 119.541 121.249 119.26C121.276 118.978 121.361 118.706 121.5 118.459C121.639 118.212 121.827 117.998 122.054 117.828C122.28 117.659 122.539 117.538 122.815 117.475L126.875 116.277C127.136 116.194 127.411 116.164 127.684 116.19C127.957 116.215 128.222 116.296 128.463 116.427C128.704 116.558 128.916 116.736 129.086 116.951C129.256 117.166 129.381 117.414 129.453 117.678L132.874 129.269C133.028 129.797 132.967 130.364 132.705 130.847C132.443 131.33 132 131.69 131.473 131.848L127.413 133.045C127.215 133.121 127.006 133.166 126.794 133.177ZM127.433 117.242C127.332 117.226 127.23 117.226 127.129 117.242L123.069 118.439C122.931 118.473 122.802 118.534 122.69 118.62C122.577 118.707 122.484 118.815 122.416 118.939C122.348 119.064 122.307 119.201 122.295 119.342C122.284 119.483 122.302 119.625 122.348 119.759L125.769 131.34C125.802 131.478 125.864 131.607 125.95 131.719C126.036 131.832 126.145 131.925 126.269 131.993C126.393 132.06 126.53 132.102 126.671 132.113C126.812 132.125 126.954 132.107 127.088 132.061L131.148 130.873C131.283 130.835 131.409 130.769 131.517 130.68C131.625 130.591 131.714 130.481 131.777 130.355C131.847 130.235 131.891 130.102 131.906 129.964C131.922 129.826 131.909 129.686 131.869 129.554L128.448 117.962C128.383 117.747 128.248 117.559 128.064 117.428C127.88 117.298 127.658 117.232 127.433 117.242Z" fill="#D1D3D4"/>
<path d="M136.477 130.386C136.392 130.386 136.308 130.366 136.233 130.325C136.174 130.294 136.122 130.251 136.08 130.198C136.038 130.146 136.007 130.085 135.99 130.021L132.417 117.902C132.381 117.803 132.381 117.695 132.417 117.597C133.158 115.435 133.767 112.847 134.366 110.35C135.716 104.676 136.781 100.2 139.096 100.048C139.336 100.035 139.576 100.074 139.8 100.162C140.024 100.249 140.227 100.383 140.395 100.555C142.1 102.25 142.1 108.188 142.1 110.37C143.907 109.802 148.779 108.34 150.951 108.665C151.651 108.756 153.945 110.208 154.148 124.814C154.15 124.924 154.115 125.032 154.049 125.12C153.983 125.208 153.889 125.272 153.783 125.301L136.619 130.376L136.477 130.386ZM133.432 117.77L136.822 129.249L153.123 124.438C153.001 117.333 152.057 109.842 150.819 109.67C148.423 109.345 141.795 111.527 141.684 111.558C141.605 111.582 141.522 111.587 141.441 111.573C141.361 111.559 141.284 111.525 141.219 111.476C141.153 111.426 141.101 111.362 141.065 111.288C141.029 111.214 141.012 111.132 141.014 111.05C141.115 108.807 141.065 102.677 139.644 101.286C139.582 101.212 139.504 101.153 139.416 101.114C139.328 101.076 139.232 101.058 139.136 101.063C137.563 101.164 136.375 106.138 135.32 110.583C134.782 113.05 134.173 115.597 133.432 117.77Z" fill="#D1D3D4"/>
<path d="M169.617 142.444C168.404 142.448 167.193 142.333 166.003 142.099C163.974 141.749 162.046 140.962 160.351 139.793C158.657 138.624 157.236 137.101 156.188 135.329C156.156 135.27 156.136 135.206 156.129 135.14C156.122 135.073 156.128 135.006 156.147 134.942C156.166 134.878 156.197 134.818 156.239 134.766C156.281 134.714 156.333 134.671 156.391 134.639C156.45 134.607 156.514 134.587 156.581 134.58C156.647 134.572 156.714 134.578 156.778 134.597C156.842 134.616 156.902 134.647 156.954 134.689C157.006 134.731 157.049 134.783 157.081 134.842C158.059 136.485 159.383 137.897 160.96 138.978C162.537 140.059 164.331 140.785 166.216 141.104C170.053 141.748 173.993 141.352 177.625 139.957C177.753 139.913 177.893 139.921 178.015 139.98C178.137 140.039 178.23 140.144 178.275 140.272C178.319 140.4 178.311 140.54 178.252 140.662C178.193 140.784 178.088 140.877 177.96 140.922C175.283 141.892 172.463 142.406 169.617 142.444Z" fill="#D1D3D4"/>
<defs>
<linearGradient id="paint0_linear" x1="86.6302" y1="133.493" x2="139.051" y2="231.959" gradientUnits="userSpaceOnUse">
<stop stop-color="#4347FE"/>
<stop offset="1" stop-color="#FF59F8"/>
</linearGradient>
<linearGradient id="paint1_linear" x1="242.585" y1="116.612" x2="345.572" y2="206.613" gradientUnits="userSpaceOnUse">
<stop stop-color="#4347FE"/>
<stop offset="1" stop-color="#FF59F8"/>
</linearGradient>
<linearGradient id="paint2_linear" x1="127.768" y1="150.051" x2="245.257" y2="288.72" gradientUnits="userSpaceOnUse">
<stop stop-color="#4347FE"/>
<stop offset="1" stop-color="#FF59F8"/>
</linearGradient>
<linearGradient id="paint3_linear" x1="186.072" y1="122.085" x2="235.22" y2="202.181" gradientUnits="userSpaceOnUse">
<stop stop-color="#4347FE"/>
<stop offset="1" stop-color="#FF59F8"/>
</linearGradient>
<linearGradient id="paint4_linear" x1="110.28" y1="219.259" x2="131.799" y2="244.403" gradientUnits="userSpaceOnUse">
<stop stop-color="#4347FE"/>
<stop offset="1" stop-color="#FF59F8"/>
</linearGradient>
<linearGradient id="paint5_linear" x1="137.725" y1="217.036" x2="159.244" y2="242.18" gradientUnits="userSpaceOnUse">
<stop stop-color="#4347FE"/>
<stop offset="1" stop-color="#FF59F8"/>
</linearGradient>
</defs>
</svg>
