<svg width="406" height="306" viewBox="0 0 406 306" fill="none" xmlns="http://www.w3.org/2000/svg">
<path d="M35.8701 162.277L249.061 76.0833L365.664 157.486L147.327 262.803L35.8701 162.277Z" fill="white"/>
<path d="M147.327 263.31C147.2 263.311 147.077 263.264 146.982 263.178L35.525 162.653C35.4623 162.595 35.4152 162.522 35.3882 162.441C35.3611 162.36 35.3548 162.274 35.37 162.19C35.3852 162.106 35.4213 162.027 35.475 161.961C35.5287 161.894 35.5983 161.843 35.6772 161.81L248.827 75.6063C248.907 75.5753 248.993 75.5647 249.079 75.5753C249.164 75.5859 249.245 75.6175 249.314 75.6672L365.948 157.06C366.022 157.11 366.082 157.178 366.121 157.258C366.16 157.339 366.178 157.428 366.171 157.517C366.162 157.604 366.131 157.688 366.081 157.76C366.031 157.833 365.965 157.892 365.887 157.933L147.54 263.259C147.476 263.297 147.402 263.314 147.327 263.31ZM36.814 162.45L147.449 262.194L364.659 157.405L249 76.6517L36.814 162.45Z" fill="#231F20"/>
<path d="M40.3361 150.95L253.527 64.7456L370.13 146.149L151.793 251.465L40.3361 150.95Z" fill="white"/>
<path d="M151.793 251.983C151.669 251.98 151.551 251.933 151.458 251.851L40.0012 151.366C39.9384 151.307 39.891 151.235 39.8633 151.153C39.8357 151.072 39.8286 150.986 39.8426 150.901C39.8567 150.817 39.8916 150.737 39.944 150.669C39.9965 150.602 40.0649 150.548 40.1433 150.513L253.344 64.2788C253.417 64.2369 253.499 64.2148 253.583 64.2148C253.666 64.2148 253.749 64.2369 253.821 64.2788L370.475 145.733C370.546 145.785 370.602 145.854 370.64 145.934C370.677 146.014 370.694 146.101 370.688 146.189C370.682 146.278 370.653 146.363 370.603 146.436C370.553 146.509 370.484 146.568 370.404 146.605L152.017 251.932C151.946 251.963 151.87 251.98 151.793 251.983ZM41.2801 151.112L151.915 250.866L369.125 146.067L253.415 65.3141L41.2801 151.112Z" fill="#231F20"/>
<path d="M265.027 100.453C264.922 100.453 264.819 100.421 264.732 100.362L236.698 80.3361C236.625 80.2866 236.567 80.2187 236.529 80.1393C236.491 80.0598 236.475 79.9718 236.482 79.884C236.489 79.7963 236.52 79.7121 236.57 79.6399C236.621 79.5678 236.689 79.5103 236.769 79.4734L242.798 76.4893C242.875 76.4426 242.962 76.418 243.052 76.418C243.141 76.418 243.229 76.4426 243.306 76.4893L272.325 96.6066C272.38 96.6442 272.428 96.6926 272.465 96.7489C272.502 96.8051 272.527 96.8681 272.539 96.9342C272.551 97.0003 272.55 97.0682 272.536 97.1339C272.522 97.1997 272.495 97.2619 272.456 97.3171C272.377 97.4257 272.259 97.4992 272.126 97.522C271.993 97.5447 271.857 97.5149 271.746 97.4389L242.981 77.5347L237.977 80.0012L265.321 99.5298C265.376 99.5682 265.423 99.6172 265.459 99.6738C265.494 99.7304 265.519 99.7936 265.53 99.8596C265.541 99.9257 265.539 99.9933 265.525 100.059C265.51 100.124 265.482 100.186 265.443 100.24C265.396 100.307 265.334 100.362 265.261 100.399C265.189 100.436 265.108 100.455 265.027 100.453Z" fill="#D1D3D4"/>
<path d="M226.67 116.714C226.56 116.716 226.452 116.68 226.365 116.612L197.681 95.074C197.628 95.034 197.583 94.9839 197.549 94.9265C197.515 94.8692 197.493 94.8057 197.483 94.7398C197.474 94.6738 197.478 94.6066 197.494 94.542C197.511 94.4775 197.54 94.4168 197.58 94.3635C197.62 94.3102 197.67 94.2652 197.727 94.2313C197.785 94.1973 197.848 94.175 197.914 94.1656C197.98 94.1562 198.047 94.1598 198.112 94.1764C198.176 94.1929 198.237 94.222 198.29 94.262L226.71 115.628L278.14 94.2011C278.202 94.1745 278.269 94.1605 278.336 94.1599C278.404 94.1593 278.47 94.1722 278.533 94.1977C278.595 94.2232 278.652 94.2609 278.699 94.3085C278.747 94.3561 278.785 94.4128 278.81 94.4751C278.858 94.5992 278.856 94.737 278.805 94.8599C278.754 94.9827 278.658 95.0812 278.536 95.1349L226.832 116.673C226.781 116.697 226.726 116.711 226.67 116.714Z" fill="#D1D3D4"/>
<path d="M150.22 125.666L89.9087 122.814C89.9087 122.814 95.1664 108.005 122.044 101.6C147.774 95.5104 160.045 98.5554 160.045 98.5554L150.22 125.666Z" fill="url(#paint0_linear)"/>
<path d="M150.22 126.174L89.9087 123.321C89.8292 123.316 89.7521 123.292 89.6835 123.251C89.6148 123.211 89.5564 123.155 89.5129 123.088C89.4755 123.02 89.456 122.943 89.456 122.865C89.456 122.787 89.4755 122.71 89.5129 122.641C89.726 122.022 95.1664 107.508 121.993 101.113C147.551 95.0233 159.731 97.9668 160.238 98.0683C160.308 98.0836 160.373 98.1143 160.429 98.1583C160.485 98.2022 160.531 98.2581 160.563 98.322C160.593 98.3855 160.608 98.4548 160.608 98.525C160.608 98.5952 160.593 98.6645 160.563 98.728L150.738 125.808C150.706 125.919 150.637 126.015 150.543 126.082C150.449 126.148 150.335 126.18 150.22 126.174ZM90.67 122.337L149.865 125.138L159.355 98.9615C156.696 98.4743 144.445 96.7894 122.145 102.098C99.1147 107.599 92.1011 119.505 90.7004 122.337H90.67Z" fill="#231F20"/>
<path d="M197.346 174.437C202.902 170.591 207.132 165.12 209.455 158.775L212.582 118.774L188.942 133.279L197.346 174.437Z" fill="white"/>
<path d="M197.346 174.944C197.276 174.943 197.206 174.925 197.143 174.893C197.068 174.864 197.002 174.816 196.95 174.754C196.899 174.692 196.864 174.617 196.849 174.538L188.445 133.38C188.425 133.277 188.436 133.171 188.478 133.075C188.52 132.979 188.59 132.897 188.678 132.842L212.318 118.338C212.399 118.288 212.492 118.262 212.587 118.262C212.682 118.262 212.775 118.288 212.856 118.338C212.936 118.387 213 118.458 213.041 118.542C213.083 118.627 213.099 118.721 213.089 118.815L209.963 158.816C209.972 158.863 209.972 158.911 209.963 158.958C207.611 165.416 203.304 170.979 197.641 174.873C197.55 174.922 197.449 174.946 197.346 174.944ZM189.511 133.522L197.692 173.594C202.794 169.794 206.703 164.613 208.958 158.664L212.003 119.728L189.511 133.522Z" fill="#231F20"/>
<path d="M199.955 138.1L150.22 116.572L162.938 90.6384C162.938 90.6384 187.186 92.3132 204.045 104.848C224.01 119.627 203.091 136.242 199.955 138.1Z" fill="url(#paint1_linear)"/>
<path d="M199.955 138.607C199.888 138.621 199.819 138.621 199.752 138.607L150.088 117.079C150.025 117.051 149.968 117.01 149.921 116.96C149.874 116.909 149.838 116.849 149.814 116.785C149.786 116.722 149.772 116.655 149.772 116.587C149.772 116.519 149.786 116.451 149.814 116.389L162.532 90.4555C162.578 90.3645 162.649 90.2889 162.738 90.2384C162.826 90.1878 162.928 90.1645 163.029 90.1713C163.273 90.1713 187.613 91.9983 204.401 104.463C210.491 108.969 213.404 114.095 213.089 119.688C212.561 129.401 202.208 137.409 200.188 138.587C200.114 138.614 200.033 138.621 199.955 138.607ZM150.981 116.277L199.914 137.491C202.279 135.988 211.607 128.498 212.094 119.545C212.389 114.318 209.597 109.487 203.812 105.193C188.343 93.7137 166.257 91.3995 163.313 91.1254L150.981 116.277Z" fill="#231F20"/>
<path d="M199.914 138.1L197.346 174.437L150.25 153.518V116.572L199.914 138.1Z" fill="#231F20"/>
<path d="M197.346 174.944C197.276 174.943 197.206 174.926 197.143 174.894L150.037 154.015C149.948 153.977 149.873 153.913 149.821 153.831C149.768 153.75 149.741 153.655 149.743 153.558V116.612C149.742 116.528 149.762 116.445 149.801 116.371C149.84 116.296 149.897 116.233 149.966 116.186C150.041 116.146 150.125 116.125 150.21 116.125C150.295 116.125 150.378 116.146 150.453 116.186L200.117 137.714C200.212 137.76 200.292 137.832 200.346 137.922C200.4 138.012 200.426 138.116 200.422 138.222L197.854 174.548C197.848 174.63 197.823 174.71 197.78 174.78C197.738 174.851 197.68 174.91 197.61 174.954C197.523 174.971 197.433 174.967 197.346 174.944ZM150.758 153.183L196.91 173.675L199.407 138.425L150.778 117.343L150.758 153.183Z" fill="#231F20"/>
<path d="M150.25 153.518L91.7357 153.031L89.9391 122.814L150.25 125.666V153.518Z" fill="#231F20"/>
<path d="M150.22 154.015L91.7052 153.528C91.5768 153.528 91.4533 153.478 91.3606 153.389C91.2678 153.3 91.2131 153.179 91.2079 153.051L89.4113 122.834C89.406 122.762 89.4159 122.689 89.4404 122.621C89.4649 122.553 89.5034 122.491 89.5535 122.438C89.6026 122.387 89.663 122.347 89.7298 122.322C89.7967 122.298 89.8683 122.289 89.9392 122.296L150.25 125.148C150.381 125.154 150.505 125.209 150.596 125.304C150.687 125.399 150.738 125.525 150.738 125.656V153.507C150.735 153.641 150.68 153.768 150.585 153.863C150.539 153.913 150.482 153.952 150.419 153.978C150.356 154.005 150.288 154.017 150.22 154.015ZM92.1823 152.523L149.713 152.99V126.143L90.4467 123.342L92.1823 152.523Z" fill="#231F20"/>
<path d="M109.752 178.375C109.752 178.375 101.926 173.787 97.0949 169.138C92.2635 164.49 90.8526 157.578 90.8526 157.578L89.9391 138.191L150.22 135.897V146.423L135.908 162.328L109.752 178.375Z" fill="white"/>
<path d="M109.752 178.852C109.664 178.851 109.577 178.831 109.498 178.791C109.417 178.791 101.561 174.112 96.7396 169.474C91.9184 164.835 90.4162 157.943 90.335 157.649L89.4113 138.181C89.4077 138.114 89.4175 138.048 89.4402 137.985C89.4628 137.922 89.4979 137.865 89.5433 137.816C89.6366 137.718 89.7637 137.66 89.8985 137.653L150.22 135.39C150.287 135.388 150.354 135.4 150.417 135.424C150.48 135.449 150.537 135.485 150.585 135.532C150.685 135.628 150.744 135.759 150.748 135.897V146.423C150.745 146.547 150.698 146.666 150.616 146.758L136.304 162.663C136.275 162.702 136.236 162.733 136.193 162.754L110.006 178.781C109.929 178.828 109.841 178.852 109.752 178.852ZM91.35 157.527C91.35 157.527 92.7811 164.267 97.44 168.692C101.243 172.082 105.363 175.1 109.742 177.705L135.604 161.932L149.743 146.23V136.425L90.4669 138.648L91.3601 157.527H91.35Z" fill="#231F20"/>
<path d="M150.22 135.897L109.234 162.287C109.234 162.287 98.2216 158.613 93.2075 150.29C90.2208 145.109 89.2658 139.002 90.5279 133.157L150.22 135.897Z" fill="url(#paint2_linear)"/>
<path d="M109.265 162.835C109.211 162.845 109.156 162.845 109.102 162.835C108.646 162.683 97.8561 159.009 92.8014 150.655C89.7265 145.361 88.7486 139.106 90.0609 133.126C90.0942 133.016 90.1629 132.919 90.2564 132.851C90.3499 132.783 90.4631 132.748 90.5786 132.751L150.271 135.451C150.378 135.455 150.482 135.494 150.566 135.561C150.651 135.628 150.711 135.72 150.74 135.825C150.768 135.929 150.762 136.039 150.724 136.14C150.685 136.24 150.615 136.326 150.524 136.384L109.539 162.774C109.455 162.82 109.36 162.841 109.265 162.835ZM90.9541 133.715C89.8732 139.315 90.8385 145.118 93.6743 150.067C98.1403 157.466 107.62 161.171 109.204 161.749L148.637 136.374L90.9541 133.715Z" fill="#231F20"/>
<path d="M150.25 135.897V162.328L109.752 178.345L109.265 162.328L150.25 135.897Z" fill="#231F20"/>
<path d="M109.752 178.852C109.654 178.855 109.558 178.827 109.478 178.771C109.41 178.726 109.353 178.666 109.313 178.596C109.272 178.525 109.249 178.446 109.244 178.365L108.757 162.338C108.756 162.25 108.776 162.163 108.817 162.085C108.858 162.007 108.918 161.94 108.991 161.891L149.976 135.501C150.054 135.454 150.144 135.429 150.235 135.429C150.327 135.429 150.416 135.454 150.494 135.501C150.573 135.546 150.64 135.611 150.686 135.689C150.732 135.768 150.757 135.857 150.758 135.948V162.338C150.755 162.439 150.723 162.537 150.665 162.62C150.608 162.703 150.527 162.767 150.433 162.805L109.945 178.832C109.882 178.849 109.817 178.856 109.752 178.852ZM109.752 162.612L110.209 177.634L149.712 162.003V136.831L109.752 162.612Z" fill="#231F20"/>
<path d="M148.9 175.777V186.668C148.9 186.668 124.277 186.586 109.752 178.345L109.417 167.362L146.698 168.641L148.9 175.777Z" fill="white"/>
<path d="M148.9 187.175C148.657 187.175 123.972 187.002 109.508 178.791C109.432 178.748 109.367 178.687 109.321 178.612C109.275 178.537 109.249 178.452 109.244 178.365L108.909 167.383C108.908 167.313 108.921 167.244 108.947 167.179C108.974 167.115 109.012 167.056 109.062 167.007C109.11 166.956 109.168 166.916 109.233 166.89C109.298 166.864 109.367 166.852 109.437 166.855L146.718 168.134C146.825 168.138 146.927 168.175 147.011 168.241C147.094 168.307 147.155 168.397 147.185 168.499L149.388 175.604C149.393 175.651 149.393 175.699 149.388 175.746V186.637C149.385 186.771 149.331 186.898 149.236 186.993C149.142 187.088 149.014 187.142 148.88 187.145L148.9 187.175ZM110.249 178.04C123.363 185.338 144.82 186.069 148.393 186.16V175.858L146.363 169.138L109.985 167.89L110.249 178.04Z" fill="#231F20"/>
<path d="M150.22 141.896L109.417 167.362C109.417 167.362 113.548 171.371 126.52 173.696C133.884 175.071 141.358 175.767 148.85 175.776L150.22 141.896Z" fill="url(#paint3_linear)"/>
<path d="M148.19 176.345C140.904 176.261 133.637 175.562 126.469 174.254C113.497 171.93 109.275 167.951 109.102 167.778C109.05 167.723 109.01 167.657 108.986 167.585C108.961 167.513 108.953 167.437 108.962 167.361C108.971 167.285 108.996 167.213 109.036 167.148C109.076 167.083 109.13 167.028 109.194 166.987L150.017 141.51C150.097 141.463 150.188 141.438 150.281 141.438C150.374 141.438 150.465 141.463 150.545 141.51C150.625 141.556 150.69 141.623 150.735 141.703C150.78 141.784 150.802 141.875 150.799 141.967L149.449 175.848C149.446 175.978 149.392 176.102 149.299 176.193C149.206 176.284 149.081 176.335 148.951 176.335L148.19 176.345ZM110.33 167.474C111.792 168.489 116.481 171.432 126.642 173.249C133.84 174.554 141.138 175.233 148.454 175.279L149.743 142.799L110.33 167.474Z" fill="#231F20"/>
<path d="M197.641 170.194L197.346 174.437C197.346 174.437 188.039 180.263 182.121 182.019V177.533L197.641 170.194Z" fill="white"/>
<path d="M182.172 182.526C182.065 182.528 181.961 182.492 181.878 182.425C181.812 182.379 181.759 182.318 181.722 182.248C181.685 182.177 181.665 182.099 181.665 182.019V177.532C181.667 177.437 181.695 177.343 181.747 177.262C181.799 177.182 181.872 177.117 181.959 177.076L197.428 169.737C197.507 169.697 197.595 169.679 197.684 169.684C197.772 169.69 197.858 169.719 197.931 169.769C198.005 169.818 198.064 169.887 198.102 169.967C198.14 170.047 198.156 170.136 198.148 170.224L197.854 174.467C197.849 174.548 197.824 174.626 197.781 174.695C197.739 174.764 197.68 174.822 197.61 174.863C197.235 175.107 188.181 180.75 182.324 182.506L182.172 182.526ZM182.68 177.857V181.329C187.917 179.573 195.479 174.985 196.89 174.142L197.113 171.026L182.68 177.857Z" fill="#231F20"/>
<path d="M182.172 177.533C187.682 175.915 192.903 173.438 197.641 170.194L156.645 150.909L182.172 177.533Z" fill="url(#paint4_linear)"/>
<path d="M182.172 178.04C182.035 178.04 181.904 177.985 181.807 177.888L156.31 151.295C156.224 151.209 156.171 151.096 156.162 150.976C156.152 150.855 156.186 150.735 156.257 150.637C156.328 150.539 156.431 150.469 156.549 150.441C156.667 150.413 156.791 150.428 156.899 150.483L197.895 169.768C197.974 169.808 198.042 169.867 198.092 169.941C198.142 170.015 198.172 170.1 198.179 170.189C198.186 170.278 198.17 170.367 198.133 170.448C198.096 170.529 198.038 170.599 197.966 170.651C193.173 173.921 187.899 176.421 182.335 178.06C182.28 178.07 182.223 178.063 182.172 178.04ZM158.908 152.563L182.335 176.923C187.391 175.39 192.203 173.145 196.626 170.255L158.908 152.563Z" fill="#231F20"/>
<path d="M182.172 174.112V182.019C171.46 185.594 160.182 187.169 148.9 186.668V175.777L182.172 174.112Z" fill="white"/>
<path d="M153.133 187.287C151.732 187.287 150.311 187.287 148.87 187.175C148.741 187.167 148.619 187.11 148.531 187.016C148.442 186.922 148.393 186.797 148.393 186.668V175.777C148.395 175.646 148.447 175.522 148.537 175.427C148.627 175.333 148.75 175.277 148.88 175.269L182.152 173.605C182.22 173.6 182.289 173.61 182.353 173.632C182.418 173.655 182.477 173.69 182.527 173.737C182.577 173.786 182.616 173.844 182.642 173.909C182.668 173.973 182.681 174.042 182.68 174.112V182.019C182.68 182.122 182.65 182.223 182.592 182.308C182.534 182.393 182.451 182.459 182.355 182.496C172.928 185.625 163.065 187.242 153.133 187.287ZM149.408 186.18C160.349 186.588 171.276 185.059 181.685 181.664V174.64L149.428 176.264L149.408 186.18Z" fill="#231F20"/>
<path d="M150.22 142.698L182.172 174.163C177.447 175.586 172.623 176.655 167.739 177.36C161.501 178.282 155.206 178.753 148.9 178.771L150.22 142.698Z" fill="url(#paint5_linear)"/>
<path d="M149.022 179.288H148.9C148.832 179.289 148.763 179.274 148.7 179.246C148.637 179.218 148.581 179.177 148.535 179.126C148.444 179.026 148.394 178.896 148.393 178.761L149.712 142.677C149.714 142.579 149.744 142.482 149.8 142.401C149.856 142.32 149.935 142.257 150.027 142.221C150.12 142.186 150.22 142.178 150.317 142.198C150.414 142.218 150.504 142.264 150.575 142.332L182.527 173.747C182.591 173.807 182.638 173.882 182.662 173.966C182.687 174.05 182.69 174.139 182.67 174.224C182.65 174.308 182.608 174.386 182.55 174.45C182.491 174.514 182.417 174.562 182.335 174.589C177.586 176.046 172.734 177.142 167.82 177.867C161.596 178.785 155.314 179.26 149.022 179.288ZM150.677 143.865L149.428 178.273C155.543 178.227 161.648 177.759 167.698 176.873C172.279 176.148 176.808 175.131 181.259 173.828L150.677 143.865Z" fill="#231F20"/>
<path d="M305.312 67.679L326.942 59.3864L307.697 46.7192L286.545 55.4888L305.312 67.679Z" fill="url(#paint6_linear)"/>
<path d="M305.312 68.1866C305.215 68.1847 305.12 68.1567 305.038 68.1054L286.23 55.9152C286.153 55.8627 286.091 55.7911 286.05 55.7075C286.009 55.6239 285.991 55.5311 285.997 55.4382C286.009 55.3463 286.044 55.259 286.099 55.1845C286.154 55.1099 286.227 55.0506 286.311 55.0119L307.545 46.2524C307.617 46.2151 307.697 46.1956 307.778 46.1956C307.86 46.1956 307.94 46.2151 308.012 46.2524L327.297 58.9298C327.376 58.9795 327.439 59.051 327.479 59.1355C327.518 59.2201 327.533 59.3143 327.52 59.4068C327.509 59.4993 327.473 59.5871 327.416 59.6605C327.359 59.7339 327.283 59.7901 327.195 59.823L305.515 68.1561C305.45 68.1783 305.381 68.1886 305.312 68.1866ZM287.631 55.56L305.373 67.0904L325.815 59.2749L307.636 47.2877L287.631 55.56Z" fill="#231F20"/>
<path d="M305.312 67.679L303.282 165.19L325.033 154.746L326.942 59.3865L305.312 67.679Z" fill="white"/>
<path d="M303.282 165.698C303.184 165.701 303.088 165.672 303.008 165.616C302.934 165.57 302.874 165.506 302.833 165.429C302.792 165.353 302.772 165.267 302.775 165.18L304.805 67.669C304.806 67.5676 304.837 67.469 304.895 67.3858C304.953 67.3025 305.035 67.2386 305.129 67.2021L326.759 58.9197C326.831 58.8823 326.911 58.8628 326.992 58.8628C327.074 58.8628 327.154 58.8823 327.226 58.9197C327.294 58.9672 327.35 59.0311 327.387 59.1056C327.424 59.1801 327.442 59.2628 327.439 59.346L325.541 154.705C325.537 154.799 325.508 154.891 325.456 154.969C325.404 155.048 325.332 155.111 325.247 155.152L303.485 165.647C303.422 165.68 303.353 165.697 303.282 165.698ZM305.809 68.0344L303.779 164.378L324.496 154.421L326.383 60.1377L305.809 68.0344Z" fill="#231F20"/>
<path d="M286.545 55.489V155.507L303.282 165.19L305.312 67.6792L286.545 55.489Z" fill="white"/>
<path d="M303.282 165.698C303.192 165.699 303.104 165.675 303.028 165.627L286.291 155.954C286.216 155.908 286.153 155.844 286.108 155.768C286.064 155.692 286.04 155.605 286.037 155.517V55.489C286.036 55.3975 286.06 55.3073 286.106 55.2285C286.153 55.1498 286.22 55.0853 286.301 55.0424C286.379 54.9949 286.469 54.9697 286.56 54.9697C286.651 54.9697 286.741 54.9949 286.819 55.0424L305.586 67.2224C305.659 67.2692 305.719 67.3338 305.76 67.4102C305.8 67.4866 305.821 67.5722 305.82 67.6588L303.79 165.17C303.789 165.258 303.765 165.345 303.721 165.422C303.676 165.498 303.612 165.562 303.536 165.606C303.46 165.656 303.373 165.688 303.282 165.698ZM287.042 155.223L302.785 164.358L304.815 67.9836L287.052 56.4228L287.042 155.223Z" fill="#231F20"/>
<path d="M281.145 98.9208L302.774 90.6384L283.53 77.9712L262.378 86.7306L281.145 98.9208Z" fill="url(#paint7_linear)"/>
<path d="M281.155 99.4282C281.057 99.4312 280.961 99.4027 280.881 99.347L262.114 87.167C262.036 87.1156 261.975 87.0439 261.935 86.9597C261.896 86.8756 261.88 86.7823 261.89 86.69C261.897 86.5991 261.929 86.5119 261.983 86.4383C262.037 86.3648 262.11 86.3078 262.195 86.2738L283.347 77.5042C283.421 77.4668 283.503 77.4473 283.586 77.4473C283.669 77.4473 283.751 77.4668 283.824 77.5042L303.059 90.1714C303.138 90.2216 303.202 90.2928 303.243 90.377C303.284 90.4612 303.301 90.5552 303.292 90.6485C303.283 90.7413 303.247 90.8296 303.19 90.9032C303.132 90.9768 303.055 91.0327 302.967 91.0646L281.338 99.3572C281.282 99.3921 281.22 99.4162 281.155 99.4282ZM263.464 86.8321L281.206 98.3523L301.668 90.5165L283.479 78.5395L263.464 86.8321Z" fill="#231F20"/>
<path d="M281.145 98.9208L279.115 176.335L300.866 165.891L302.775 90.6384L281.145 98.9208Z" fill="white"/>
<path d="M279.125 176.842C279.027 176.845 278.931 176.817 278.851 176.761C278.779 176.713 278.721 176.648 278.68 176.572C278.639 176.496 278.618 176.411 278.617 176.325L280.647 98.9105C280.653 98.81 280.687 98.7133 280.747 98.6322C280.806 98.5511 280.888 98.4891 280.982 98.4537L302.602 90.1612C302.68 90.1311 302.765 90.1209 302.848 90.1315C302.931 90.1422 303.011 90.1733 303.079 90.2221C303.145 90.272 303.198 90.3364 303.235 90.4103C303.272 90.4843 303.292 90.5657 303.292 90.6484L301.384 165.9C301.383 165.994 301.356 166.086 301.306 166.165C301.256 166.244 301.184 166.307 301.1 166.347L279.348 176.791C279.28 176.828 279.203 176.846 279.125 176.842ZM281.662 99.2759L279.632 175.523L300.349 165.566L302.226 91.3792L281.662 99.2759Z" fill="#231F20"/>
<path d="M262.378 86.7307V166.662L279.115 176.335L281.145 98.9209L262.378 86.7307Z" fill="white"/>
<path d="M279.125 176.842C279.037 176.842 278.95 176.821 278.871 176.781L262.134 167.098C262.058 167.053 261.996 166.989 261.951 166.912C261.907 166.836 261.883 166.75 261.88 166.662V86.7307C261.881 86.6384 261.907 86.548 261.955 86.4693C262.003 86.3906 262.072 86.3265 262.154 86.2841C262.232 86.2366 262.322 86.2114 262.413 86.2114C262.504 86.2114 262.594 86.2366 262.672 86.2841L281.439 98.4641C281.511 98.5137 281.569 98.5806 281.608 98.6587C281.647 98.7368 281.666 98.8234 281.662 98.9107L279.632 176.325C279.63 176.412 279.606 176.496 279.561 176.571C279.517 176.646 279.454 176.708 279.379 176.751C279.303 176.802 279.216 176.834 279.125 176.842ZM262.885 166.368L278.638 175.503L280.668 99.2253L262.885 87.6645V166.368Z" fill="#231F20"/>
<path d="M256.947 128.407L278.567 120.114L259.322 107.447L238.18 116.206L256.947 128.407Z" fill="url(#paint8_linear)"/>
<path d="M256.947 128.914C256.847 128.912 256.749 128.884 256.663 128.833L237.896 116.653C237.819 116.602 237.757 116.53 237.718 116.447C237.678 116.363 237.663 116.271 237.672 116.179C237.681 116.087 237.716 115.999 237.771 115.925C237.827 115.851 237.901 115.794 237.987 115.76L259.129 107C259.203 106.96 259.285 106.939 259.368 106.939C259.451 106.939 259.533 106.96 259.607 107L278.892 119.667C278.968 119.721 279.028 119.794 279.066 119.878C279.105 119.963 279.119 120.057 279.109 120.149C279.099 120.242 279.063 120.33 279.007 120.404C278.951 120.478 278.876 120.536 278.79 120.571L257.16 128.853C257.098 128.897 257.023 128.918 256.947 128.914ZM239.266 116.308L257.008 127.838L277.46 119.992L259.272 108.015L239.266 116.308Z" fill="#231F20"/>
<path d="M256.947 128.407L254.917 187.764L276.659 177.319L278.567 120.114L256.947 128.407Z" fill="white"/>
<path d="M254.917 188.281C254.849 188.28 254.782 188.265 254.72 188.238C254.658 188.211 254.601 188.172 254.554 188.123C254.507 188.074 254.47 188.016 254.445 187.953C254.42 187.889 254.408 187.822 254.41 187.754L256.44 128.386C256.44 128.286 256.472 128.188 256.53 128.107C256.588 128.025 256.67 127.963 256.765 127.93L278.384 119.637C278.463 119.609 278.547 119.599 278.63 119.61C278.713 119.621 278.792 119.651 278.861 119.698C278.931 119.746 278.987 119.812 279.025 119.888C279.062 119.965 279.079 120.049 279.074 120.134L277.166 177.36C277.166 177.453 277.139 177.543 277.089 177.62C277.038 177.698 276.966 177.759 276.882 177.796L255.13 188.251C255.062 188.275 254.99 188.285 254.917 188.281ZM257.434 128.752L255.404 186.952L276.121 176.995L277.998 120.865L257.434 128.752Z" fill="#231F20"/>
<path d="M238.18 116.206V178.091L254.917 187.764L256.947 128.407L238.18 116.206Z" fill="white"/>
<path d="M254.917 188.281C254.828 188.28 254.741 188.255 254.663 188.21L237.926 178.527C237.848 178.485 237.783 178.421 237.738 178.344C237.694 178.268 237.671 178.18 237.672 178.091V116.176C237.673 116.085 237.698 115.995 237.744 115.917C237.791 115.839 237.857 115.774 237.936 115.729C238.015 115.685 238.104 115.661 238.195 115.661C238.286 115.661 238.375 115.685 238.454 115.729L257.221 127.909C257.294 127.956 257.354 128.021 257.395 128.097C257.436 128.173 257.456 128.259 257.455 128.346L255.425 187.713C255.42 187.801 255.394 187.886 255.348 187.96C255.302 188.035 255.237 188.096 255.161 188.139C255.093 188.207 255.009 188.256 254.917 188.281ZM238.677 177.796L254.42 186.931L256.45 128.691L238.708 117.16L238.677 177.796Z" fill="#231F20"/>
<path d="M232.476 155.284L254.105 146.991L234.861 134.324L213.718 143.083L232.476 155.284Z" fill="url(#paint9_linear)"/>
<path d="M232.435 155.791C232.338 155.789 232.243 155.761 232.161 155.71L213.394 143.53C213.318 143.479 213.257 143.409 213.218 143.327C213.179 143.245 213.162 143.154 213.17 143.063C213.175 142.97 213.206 142.881 213.26 142.806C213.314 142.73 213.389 142.671 213.475 142.637L234.627 133.877C234.701 133.837 234.783 133.816 234.866 133.816C234.949 133.816 235.031 133.837 235.104 133.877L254.389 146.545C254.468 146.596 254.531 146.667 254.572 146.751C254.613 146.835 254.631 146.928 254.623 147.022C254.612 147.115 254.576 147.204 254.519 147.279C254.461 147.354 254.385 147.412 254.298 147.448L232.668 155.73C232.597 155.77 232.517 155.791 232.435 155.791ZM214.754 143.185L232.496 154.715L252.999 146.91L234.81 134.933L214.754 143.185Z" fill="#231F20"/>
<path d="M232.476 155.284L230.446 200.055L252.197 189.611L254.105 146.991L232.476 155.284Z" fill="white"/>
<path d="M230.405 200.563C230.308 200.561 230.213 200.533 230.131 200.482C230.057 200.434 229.997 200.368 229.958 200.289C229.918 200.211 229.901 200.123 229.908 200.035L231.938 155.253C231.939 155.154 231.971 155.058 232.029 154.978C232.087 154.898 232.169 154.838 232.262 154.807L253.882 146.514C253.961 146.486 254.045 146.477 254.128 146.487C254.211 146.498 254.29 146.528 254.359 146.575C254.429 146.624 254.485 146.689 254.522 146.766C254.56 146.842 254.577 146.927 254.572 147.012L252.664 189.642C252.659 189.733 252.631 189.821 252.581 189.898C252.531 189.975 252.461 190.037 252.38 190.078L230.628 200.522C230.559 200.556 230.482 200.57 230.405 200.563ZM232.932 155.639L230.953 199.284L251.669 189.337L253.527 147.793L232.932 155.639Z" fill="#231F20"/>
<path d="M213.718 143.083V190.372L230.446 200.055L232.476 155.284L213.718 143.083Z" fill="white"/>
<path d="M230.405 200.563C230.317 200.562 230.23 200.541 230.151 200.502L213.424 190.819C213.347 190.775 213.284 190.711 213.239 190.635C213.195 190.558 213.171 190.471 213.17 190.383V143.083C213.171 142.992 213.196 142.903 213.242 142.825C213.289 142.746 213.355 142.682 213.434 142.637C213.513 142.592 213.602 142.569 213.693 142.569C213.784 142.569 213.873 142.592 213.952 142.637L232.719 154.817C232.794 154.863 232.855 154.93 232.894 155.009C232.933 155.087 232.95 155.176 232.942 155.263L230.912 200.045C230.912 200.132 230.887 200.217 230.84 200.291C230.793 200.365 230.727 200.424 230.649 200.461C230.578 200.517 230.494 200.552 230.405 200.563ZM214.165 190.088L229.918 199.223L231.897 155.578L214.165 144.048V190.088Z" fill="#231F20"/>
<path d="M207.872 181.633L229.502 173.351L210.257 160.673L189.105 169.443L207.872 181.633Z" fill="url(#paint10_linear)"/>
<path d="M207.872 182.141C207.775 182.139 207.68 182.111 207.598 182.059L188.831 169.879C188.753 169.828 188.692 169.756 188.652 169.672C188.613 169.588 188.597 169.495 188.607 169.402C188.614 169.311 188.646 169.224 188.7 169.151C188.754 169.077 188.827 169.02 188.912 168.986L210.105 160.206C210.181 160.177 210.263 160.166 210.345 160.175C210.426 160.183 210.504 160.212 210.572 160.257L229.857 172.924C229.934 172.976 229.995 173.047 230.035 173.13C230.074 173.214 230.09 173.307 230.081 173.399C230.071 173.491 230.037 173.578 229.981 173.652C229.926 173.726 229.851 173.783 229.766 173.818L208.075 182.11L207.872 182.141ZM190.191 169.544L207.933 181.065L228.375 173.229L210.186 161.252L190.191 169.544Z" fill="#231F20"/>
<path d="M207.872 181.633L205.842 211.677L227.593 201.233L229.502 173.351L207.872 181.633Z" fill="white"/>
<path d="M205.842 212.185C205.741 212.186 205.642 212.158 205.558 212.103C205.485 212.052 205.427 211.983 205.387 211.904C205.348 211.824 205.33 211.735 205.334 211.647L207.364 181.603C207.37 181.506 207.404 181.414 207.462 181.336C207.52 181.259 207.599 181.199 207.689 181.166L229.319 172.874C229.399 172.843 229.485 172.832 229.57 172.843C229.655 172.853 229.736 172.885 229.806 172.935C229.872 172.988 229.925 173.056 229.96 173.134C229.996 173.211 230.012 173.296 230.009 173.381L228.101 201.273C228.096 201.362 228.067 201.448 228.017 201.521C227.967 201.594 227.898 201.653 227.817 201.689L206.045 212.134C205.983 212.167 205.913 212.185 205.842 212.185ZM208.359 181.988L206.41 210.855L227.106 200.918L228.943 174.112L208.359 181.988Z" fill="#231F20"/>
<path d="M189.105 169.443V202.004L205.842 211.677L207.872 181.633L189.105 169.443Z" fill="white"/>
<path d="M205.842 212.184C205.754 212.184 205.667 212.163 205.588 212.124L188.851 202.44C188.774 202.396 188.71 202.333 188.666 202.256C188.621 202.179 188.598 202.093 188.597 202.004V169.443C188.598 169.351 188.624 169.26 188.672 169.181C188.72 169.103 188.789 169.039 188.871 168.996C188.949 168.949 189.039 168.924 189.13 168.924C189.221 168.924 189.311 168.949 189.389 168.996L208.156 181.176C208.231 181.228 208.291 181.298 208.33 181.38C208.37 181.462 208.387 181.553 208.38 181.643L206.35 211.687C206.343 211.773 206.315 211.855 206.269 211.928C206.223 212 206.16 212.061 206.086 212.103C206.01 212.145 205.928 212.173 205.842 212.184ZM189.602 201.71L205.385 210.845L207.334 181.907L189.602 170.387V201.71Z" fill="#231F20"/>
<path d="M315.107 74.1549C315.107 74.1549 293.944 116.43 268.823 144.799C255.303 160.085 217.677 196.757 217.677 196.757L233.917 183.988C233.917 183.988 271.005 156.664 286.545 136.456C302.084 116.247 321.41 82.1531 321.755 80.8234C322.1 79.4938 318.324 71.1099 318.324 71.1099L315.107 74.1549Z" fill="#231F20"/>
<path d="M217.677 197.264C217.604 197.264 217.532 197.248 217.466 197.218C217.4 197.188 217.34 197.145 217.291 197.092C217.201 196.997 217.151 196.872 217.151 196.741C217.151 196.611 217.201 196.486 217.291 196.391C217.667 196.026 255.059 159.557 268.417 144.464C293.223 116.46 314.447 74.3476 314.65 73.9315C314.672 73.8766 314.707 73.8279 314.751 73.7894L318.01 70.7444C318.068 70.6879 318.139 70.647 318.217 70.6257C318.295 70.6044 318.378 70.6033 318.456 70.6226C318.534 70.6366 318.608 70.67 318.67 70.7196C318.732 70.7693 318.781 70.8336 318.811 70.9068C319.725 72.9368 322.668 79.5647 322.273 80.9756C321.917 82.2037 302.673 116.358 286.94 136.801C271.492 156.837 234.577 184.16 234.16 184.435L217.92 197.183C217.848 197.23 217.764 197.258 217.677 197.264ZM315.523 74.4491C314.457 76.5603 293.558 117.627 269.208 145.124C259.272 156.35 236.089 179.36 224.65 190.616L233.592 183.582C233.978 183.298 270.792 156.055 286.149 136.141C301.82 115.841 320.902 81.9094 321.308 80.6711C321.491 79.9809 319.877 75.7382 318.192 71.9522L315.523 74.4491Z" fill="#231F20"/>
<path d="M339.7 44.2427L337.224 43.1973L307.312 70.8256L308.266 73.3935L339.7 44.2427Z" fill="#231F20"/>
<path d="M308.266 73.901H308.144C308.063 73.8797 307.988 73.839 307.926 73.7824C307.864 73.7258 307.817 73.6551 307.789 73.5762L306.834 71.0083C306.8 70.9141 306.794 70.8118 306.817 70.7142C306.841 70.6166 306.893 70.5282 306.966 70.4602L336.878 42.8217C336.952 42.7559 337.042 42.7124 337.139 42.6963C337.236 42.6801 337.336 42.6919 337.427 42.7304L339.903 43.7454C339.978 43.7804 340.044 43.8327 340.095 43.898C340.146 43.9632 340.181 44.0396 340.198 44.1209C340.214 44.2053 340.208 44.2923 340.182 44.374C340.155 44.4557 340.108 44.5292 340.045 44.5878L308.58 73.7386C308.497 73.8267 308.386 73.8839 308.266 73.901ZM307.91 70.9677L308.479 72.5003L338.777 44.395L337.325 43.7758L307.91 70.9677Z" fill="#231F20"/>
<path d="M233.907 182.374C233.907 182.374 266.742 155.284 289.975 122.743C300.349 108.253 309.586 92.9828 317.604 77.0678L308.266 73.4443L339.731 44.2935L337.995 82.7315L329.804 80.4478C329.804 80.4478 308.296 117.871 292.249 136.273C269.675 162.186 230.994 190.068 217.667 196.767L233.907 182.374Z" fill="url(#paint11_linear)"/>
<path d="M217.677 197.264C217.593 197.264 217.51 197.244 217.436 197.205C217.362 197.166 217.298 197.11 217.251 197.041C217.182 196.939 217.153 196.817 217.168 196.696C217.183 196.575 217.241 196.463 217.332 196.381L233.572 181.988C233.907 181.724 266.62 154.583 289.549 122.459C299.78 108.111 308.921 93.0163 316.893 77.3012L308.083 73.8299C308.003 73.7964 307.932 73.7437 307.877 73.6764C307.822 73.6092 307.785 73.5294 307.768 73.4442C307.753 73.3598 307.759 73.273 307.785 73.1915C307.812 73.11 307.858 73.0364 307.921 72.9773L339.385 43.8265C339.461 43.7604 339.554 43.7176 339.653 43.7031C339.752 43.6887 339.853 43.7034 339.944 43.7453C340.036 43.7848 340.114 43.8518 340.166 43.9372C340.219 44.0226 340.244 44.1222 340.238 44.2223L338.523 82.7111C338.519 82.787 338.499 82.8612 338.463 82.9282C338.427 82.9951 338.376 83.0532 338.315 83.098C338.254 83.1428 338.183 83.1733 338.108 83.1871C338.034 83.201 337.957 83.1979 337.883 83.178L330.068 80.9958C327.855 84.802 307.738 119.271 292.675 136.557C270.416 162.104 231.633 190.352 217.931 197.173C217.854 197.222 217.767 197.253 217.677 197.264ZM234.242 182.76L221.371 194.158C237.439 184.8 271.563 159.252 291.884 135.928C307.687 117.79 329.144 80.5593 329.357 80.1939C329.411 80.0951 329.496 80.0173 329.599 79.973C329.702 79.9288 329.817 79.9208 329.926 79.9503L337.508 82.0717L339.142 45.4606L309.21 73.2107L317.786 76.5399C317.851 76.5643 317.91 76.6023 317.959 76.6513C318.008 76.7004 318.046 76.7593 318.071 76.8241C318.098 76.8881 318.113 76.9573 318.113 77.0271C318.113 77.097 318.098 77.1661 318.071 77.2301C310.031 93.1831 300.781 108.497 290.402 123.037C267.493 155.101 234.881 182.222 234.242 182.76Z" fill="#231F20"/>
<path d="M151.57 233.093C151.45 233.095 151.334 233.052 151.245 232.972L109.092 197.142C109.041 197.1 108.998 197.048 108.967 196.989C108.936 196.93 108.917 196.866 108.912 196.8C108.906 196.734 108.914 196.667 108.934 196.604C108.955 196.54 108.988 196.482 109.031 196.432C109.12 196.329 109.245 196.266 109.379 196.255C109.514 196.243 109.648 196.285 109.752 196.371L151.651 231.987L197.438 211.22C197.499 211.188 197.566 211.169 197.635 211.163C197.704 211.158 197.774 211.167 197.839 211.189C197.905 211.212 197.965 211.248 198.016 211.294C198.068 211.341 198.109 211.398 198.137 211.461C198.166 211.524 198.181 211.592 198.182 211.662C198.183 211.731 198.17 211.8 198.143 211.864C198.117 211.928 198.077 211.985 198.028 212.034C197.978 212.082 197.919 212.119 197.854 212.144L151.783 233.053C151.716 233.081 151.643 233.095 151.57 233.093Z" fill="#D1D3D4"/>
<path d="M328.464 147.976C328.372 147.976 328.281 147.951 328.202 147.902C328.123 147.854 328.059 147.784 328.018 147.702C327.956 147.581 327.944 147.442 327.984 147.313C328.024 147.184 328.112 147.076 328.231 147.011L345.425 138.252C345.484 138.221 345.549 138.202 345.615 138.196C345.682 138.19 345.749 138.198 345.812 138.219C345.876 138.24 345.934 138.273 345.985 138.317C346.035 138.361 346.076 138.415 346.105 138.475C346.136 138.534 346.155 138.599 346.161 138.666C346.166 138.732 346.158 138.799 346.138 138.863C346.117 138.926 346.083 138.985 346.039 139.035C345.995 139.085 345.942 139.126 345.882 139.155L328.698 147.925C328.626 147.962 328.545 147.979 328.464 147.976Z" fill="#D1D3D4"/>
<path d="M234.597 113.415C234.492 113.414 234.389 113.383 234.303 113.324L209.943 95.9265C209.869 95.8723 209.81 95.7998 209.773 95.7162C209.735 95.6326 209.721 95.5406 209.729 95.4495C209.74 95.361 209.774 95.2769 209.827 95.2057C209.881 95.1344 209.952 95.0784 210.034 95.0435L217.474 91.897C217.555 91.8642 217.643 91.8526 217.73 91.8632C217.817 91.8739 217.9 91.9064 217.971 91.9578L241.905 109.578C242.012 109.659 242.083 109.778 242.104 109.911C242.125 110.043 242.094 110.179 242.017 110.289C241.936 110.396 241.816 110.468 241.682 110.487C241.549 110.506 241.414 110.471 241.306 110.39L217.606 92.9424L211.272 95.622L234.891 112.491C234.98 112.553 235.047 112.642 235.082 112.745C235.116 112.847 235.117 112.958 235.084 113.062C235.051 113.165 234.986 113.255 234.899 113.318C234.811 113.382 234.705 113.416 234.597 113.415Z" fill="#D1D3D4"/>
<path d="M250.614 106.381C250.509 106.38 250.406 106.349 250.319 106.29L230.659 92.2419C230.584 92.1933 230.525 92.1247 230.487 92.044C230.449 91.9633 230.435 91.8736 230.446 91.7852C230.453 91.6971 230.483 91.6123 230.532 91.5394C230.582 91.4664 230.65 91.4077 230.73 91.369L237.693 88.0398C237.773 87.9925 237.864 87.9675 237.957 87.9675C238.049 87.9675 238.141 87.9925 238.22 88.0398L257.932 102.544C258.041 102.624 258.114 102.743 258.135 102.876C258.156 103.01 258.123 103.146 258.043 103.255C257.964 103.364 257.845 103.437 257.711 103.458C257.578 103.479 257.442 103.446 257.333 103.366L237.865 89.0548L231.938 91.9273L250.918 105.488C251.003 105.552 251.066 105.641 251.098 105.742C251.13 105.844 251.129 105.953 251.095 106.054C251.061 106.155 250.997 106.243 250.91 106.305C250.824 106.368 250.72 106.401 250.614 106.401V106.381Z" fill="#D1D3D4"/>
<path d="M150.22 227.907H150.118C150.053 227.895 149.99 227.87 149.934 227.833C149.878 227.796 149.83 227.748 149.793 227.692C149.756 227.636 149.731 227.573 149.719 227.507C149.706 227.441 149.708 227.373 149.723 227.308C149.794 226.922 151.661 217.869 156.3 214.113C158.665 212.225 161.253 211.839 163.537 211.505C166.531 211.068 169.119 210.693 170.733 207.242C173.316 202.006 174.962 196.358 175.595 190.555C175.599 190.488 175.616 190.423 175.645 190.363C175.674 190.303 175.715 190.249 175.765 190.205C175.815 190.16 175.873 190.126 175.936 190.105C175.999 190.083 176.066 190.074 176.133 190.078C176.199 190.08 176.264 190.096 176.324 190.124C176.384 190.152 176.438 190.192 176.483 190.241C176.527 190.291 176.561 190.348 176.583 190.411C176.605 190.473 176.614 190.54 176.61 190.606C176.61 190.92 176.163 198.249 171.708 207.729C169.85 211.667 166.886 212.103 163.74 212.56C161.476 212.895 159.132 213.24 156.99 214.956C152.626 218.437 150.788 227.43 150.768 227.521C150.739 227.641 150.668 227.746 150.567 227.817C150.466 227.888 150.343 227.92 150.22 227.907Z" fill="#D1D3D4"/>
<path d="M59.4891 154.015C59.4225 154.028 59.354 154.027 59.2876 154.013C59.2212 153.999 59.1581 153.973 59.102 153.934C59.046 153.896 58.9979 153.847 58.9607 153.791C58.9235 153.734 58.8979 153.67 58.8852 153.604C58.8725 153.537 58.8731 153.469 58.8869 153.402C58.9007 153.336 58.9275 153.273 58.9657 153.217C59.0038 153.161 59.0527 153.113 59.1094 153.075C59.1661 153.038 59.2296 153.013 59.2963 153L79.5963 144.992C79.7215 144.942 79.8613 144.944 79.985 144.997C80.1087 145.05 80.2062 145.151 80.256 145.276C80.3058 145.401 80.3039 145.541 80.2506 145.664C80.1973 145.788 80.097 145.886 79.9718 145.935L59.6718 153.944C59.6179 153.982 59.555 154.007 59.4891 154.015Z" fill="#D1D3D4"/>
<path d="M64.0262 159.466C63.8916 159.49 63.7529 159.46 63.6406 159.381C63.5283 159.303 63.4516 159.184 63.4273 159.049C63.4031 158.915 63.4334 158.776 63.5114 158.664C63.5894 158.551 63.7089 158.475 63.8435 158.451L77.6272 153C77.7526 152.953 77.8914 152.956 78.0144 153.009C78.1374 153.062 78.2351 153.161 78.2869 153.284C78.3117 153.346 78.3239 153.412 78.323 153.479C78.3221 153.546 78.3081 153.612 78.2817 153.673C78.2553 153.734 78.217 153.79 78.1692 153.836C78.1213 153.883 78.0648 153.919 78.0027 153.944L64.219 159.395C64.159 159.428 64.0939 159.452 64.0262 159.466Z" fill="#D1D3D4"/>
<defs>
<linearGradient id="paint0_linear" x1="89.9087" y1="97.7942" x2="105.077" y2="142.392" gradientUnits="userSpaceOnUse">
<stop stop-color="#4347FE"/>
<stop offset="1" stop-color="#FF59F8"/>
</linearGradient>
<linearGradient id="paint1_linear" x1="150.22" y1="90.6384" x2="188.97" y2="150.124" gradientUnits="userSpaceOnUse">
<stop stop-color="#4347FE"/>
<stop offset="1" stop-color="#FF59F8"/>
</linearGradient>
<linearGradient id="paint2_linear" x1="89.9847" y1="133.157" x2="108.361" y2="177.555" gradientUnits="userSpaceOnUse">
<stop stop-color="#4347FE"/>
<stop offset="1" stop-color="#FF59F8"/>
</linearGradient>
<linearGradient id="paint3_linear" x1="109.417" y1="141.896" x2="137.977" y2="182.084" gradientUnits="userSpaceOnUse">
<stop stop-color="#4347FE"/>
<stop offset="1" stop-color="#FF59F8"/>
</linearGradient>
<linearGradient id="paint4_linear" x1="156.645" y1="150.909" x2="176.827" y2="187.22" gradientUnits="userSpaceOnUse">
<stop stop-color="#4347FE"/>
<stop offset="1" stop-color="#FF59F8"/>
</linearGradient>
<linearGradient id="paint5_linear" x1="148.9" y1="142.698" x2="181.009" y2="177.302" gradientUnits="userSpaceOnUse">
<stop stop-color="#4347FE"/>
<stop offset="1" stop-color="#FF59F8"/>
</linearGradient>
<linearGradient id="paint6_linear" x1="286.545" y1="46.7192" x2="300.423" y2="77.9739" gradientUnits="userSpaceOnUse">
<stop stop-color="#4347FE"/>
<stop offset="1" stop-color="#FF59F8"/>
</linearGradient>
<linearGradient id="paint7_linear" x1="262.378" y1="77.9712" x2="276.245" y2="109.216" gradientUnits="userSpaceOnUse">
<stop stop-color="#4347FE"/>
<stop offset="1" stop-color="#FF59F8"/>
</linearGradient>
<linearGradient id="paint8_linear" x1="238.18" y1="107.447" x2="252.061" y2="138.699" gradientUnits="userSpaceOnUse">
<stop stop-color="#4347FE"/>
<stop offset="1" stop-color="#FF59F8"/>
</linearGradient>
<linearGradient id="paint9_linear" x1="213.718" y1="134.324" x2="227.599" y2="165.576" gradientUnits="userSpaceOnUse">
<stop stop-color="#4347FE"/>
<stop offset="1" stop-color="#FF59F8"/>
</linearGradient>
<linearGradient id="paint10_linear" x1="189.105" y1="160.673" x2="202.983" y2="191.928" gradientUnits="userSpaceOnUse">
<stop stop-color="#4347FE"/>
<stop offset="1" stop-color="#FF59F8"/>
</linearGradient>
<linearGradient id="paint11_linear" x1="217.667" y1="44.2935" x2="353.462" y2="171.317" gradientUnits="userSpaceOnUse">
<stop stop-color="#4347FE"/>
<stop offset="1" stop-color="#FF59F8"/>
</linearGradient>
</defs>
</svg>
