<svg width="313" height="404" viewBox="0 0 313 404" fill="none" xmlns="http://www.w3.org/2000/svg">
<g opacity="0.25">
<path opacity="0.5" d="M146.574 123.837C173.956 107.856 196.593 122.792 200.598 157.279C201.295 163.244 196.768 171.126 191.239 174.348L101.91 226.514C96.3813 229.736 91.8539 227.124 92.5504 220.331C96.5554 181.271 119.236 139.817 146.574 123.837Z" fill="url(#paint0_linear)"/>
<path opacity="0.5" d="M116.058 79.0737C116.058 102.892 129.815 114.127 146.792 104.199C163.77 94.2706 177.526 66.9684 177.526 43.1498C177.526 19.3311 163.77 8.0967 146.792 18.0248C129.815 27.9528 116.058 55.2551 116.058 79.0737Z" fill="url(#paint1_linear)"/>
<path opacity="0.07" d="M128.987 109.554C156.37 93.5738 179.007 108.509 183.012 142.996C183.708 148.962 179.181 156.843 173.652 160.066L84.323 212.232C78.7943 215.454 74.2669 212.841 74.9634 206.048C78.9685 166.989 101.605 125.535 128.987 109.554Z" fill="url(#paint2_linear)"/>
<path opacity="0.07" d="M98.4708 64.7905C98.4708 88.6092 112.227 99.8436 129.205 89.9155C146.183 79.9874 159.939 52.6852 159.939 28.8666C159.939 5.0479 146.183 -6.1865 129.205 3.74157C112.227 13.6696 98.4708 40.9719 98.4708 64.7905Z" fill="url(#paint3_linear)"/>
<path opacity="0.2" d="M39.3099 246.651C39.3099 245.049 40.1644 243.569 41.5514 242.768L109.941 203.271C112.93 201.544 116.667 203.702 116.667 207.154V239.708L39.3099 284.384V246.651Z" fill="url(#paint4_linear)"/>
<path d="M100.952 221.985C100.952 225.294 102.911 226.862 105.349 225.469C107.787 224.075 109.746 220.243 109.746 216.934C109.746 213.625 107.787 212.057 105.349 213.45C102.911 214.844 100.952 218.676 100.952 221.985Z" fill="#737380"/>
<path opacity="0.15" d="M96.8603 220.549L73.6138 234.004V238.837L96.9038 225.382L96.8603 220.549Z" fill="white"/>
<path opacity="0.15" d="M96.8604 230.259L47.3202 258.867V263.788L96.8604 235.179V230.259Z" fill="white"/>
<path opacity="0.2" d="M196.463 200.059C196.463 198.457 197.318 196.976 198.706 196.175L267.095 156.717C270.085 154.992 273.82 157.15 273.82 160.601V193.159L196.463 237.835V200.059Z" fill="url(#paint5_linear)"/>
<path d="M258.105 175.393C258.105 178.703 260.064 180.27 262.502 178.877C264.94 177.483 266.899 173.651 266.899 170.342C266.899 167.033 264.94 165.465 262.502 166.859C260.064 168.252 258.105 172.084 258.105 175.393Z" fill="#737380"/>
<path opacity="0.15" d="M254.144 174.174L240.126 182.273V187.194L254.144 179.094V174.174Z" fill="white"/>
<path opacity="0.15" d="M254.013 183.884L204.473 212.492V217.413L254.013 188.804V183.884Z" fill="white"/>
<path opacity="0.3" d="M146.614 249.832C146.616 246.379 142.878 244.22 139.888 245.947L2.28372 325.416C0.897415 326.216 0.0430908 327.695 0.0421753 329.296L0.00012207 403.13L133.645 325.969L144.617 329.553C145.583 329.869 146.575 329.149 146.576 328.133L146.614 249.832Z" fill="url(#paint6_linear)"/>
<path d="M116.842 284.863C116.842 291.177 120.542 294.095 125.156 291.438C129.771 288.782 133.471 281.51 133.471 275.24C133.471 268.926 129.771 266.009 125.156 268.665C120.586 271.321 116.842 278.593 116.842 284.863Z" fill="#737380"/>
<path opacity="0.15" d="M108.919 282.425L76.7918 300.975V307.68L108.919 289.131V282.425Z" fill="white"/>
<path opacity="0.15" d="M108.919 295.88L12.9729 351.268V357.974L108.919 302.586V295.88Z" fill="white"/>
<path opacity="0.15" d="M108.919 309.335L33.9122 352.661V359.367L108.919 316.041V309.335Z" fill="white"/>
<path opacity="0.3" d="M166.424 266.593C166.425 264.992 167.28 263.513 168.667 262.712L306.27 183.284C309.26 181.558 312.998 183.718 312.996 187.17L312.956 255.819L179.311 332.98L169.118 348.085C168.293 349.307 166.384 348.723 166.384 347.248L166.424 266.593Z" fill="url(#paint7_linear)"/>
<path d="M196.202 272.41C196.202 278.723 192.458 285.952 187.887 288.608C183.272 291.264 179.572 288.303 179.572 281.989C179.572 275.675 183.316 268.447 187.887 265.791C192.458 263.178 196.202 266.139 196.202 272.41Z" fill="#737380"/>
<path opacity="0.15" d="M204.125 260.87L236.252 242.32V249.026L204.125 267.576V260.87Z" fill="white"/>
<path opacity="0.15" d="M204.081 274.282L300.027 218.894V225.599L204.125 280.988L204.081 274.282Z" fill="white"/>
<path opacity="0.15" d="M204.081 287.738L279.088 244.411V251.117L204.081 294.443V287.738Z" fill="white"/>
<path opacity="0.2" d="M251.967 311.599C249.355 313.08 247.266 316.738 247.266 319.786V333.067L238.472 338.118C235.86 339.598 233.771 343.256 233.771 346.261C233.771 349.265 235.86 350.484 238.472 349.004L247.266 343.909V357.19C247.266 360.195 249.355 361.414 251.967 359.933C254.579 358.453 256.669 354.795 256.669 351.791V338.51L265.463 333.459C268.074 331.978 270.164 328.32 270.164 325.316C270.164 322.311 268.074 321.092 265.463 322.573L256.669 327.624V314.343C256.712 311.295 254.579 310.075 251.967 311.599Z" fill="url(#paint8_linear)"/>
<path opacity="0.2" d="M62.8175 141.473L50.7154 165.248C49.0612 168.514 49.3224 171.779 51.3249 172.563C53.3274 173.347 56.2876 171.3 57.9418 168.035L58.0724 167.73V194.118C58.0724 197.122 60.162 198.341 62.774 196.861C65.3859 195.337 67.4755 191.723 67.4755 188.718V162.33L67.6061 162.461C69.2603 163.811 72.2641 162.417 74.223 159.326C76.2255 156.234 76.4868 152.664 74.8325 151.314L62.8175 141.473Z" fill="url(#paint9_linear)"/>
</g>
<defs>
<linearGradient id="paint0_linear" x1="33.6176" y1="97.7762" x2="144.84" y2="178.888" gradientUnits="userSpaceOnUse">
<stop stop-color="white"/>
<stop offset="1" stop-color="white" stop-opacity="0"/>
</linearGradient>
<linearGradient id="paint1_linear" x1="90.2881" y1="19.8909" x2="201.51" y2="101.003" gradientUnits="userSpaceOnUse">
<stop stop-color="white"/>
<stop offset="1" stop-color="white" stop-opacity="0"/>
</linearGradient>
<linearGradient id="paint2_linear" x1="16.0232" y1="83.4891" x2="127.246" y2="164.601" gradientUnits="userSpaceOnUse">
<stop stop-color="white"/>
<stop offset="1" stop-color="white" stop-opacity="0"/>
</linearGradient>
<linearGradient id="paint3_linear" x1="72.6933" y1="5.60239" x2="183.915" y2="86.714" gradientUnits="userSpaceOnUse">
<stop stop-color="white"/>
<stop offset="1" stop-color="white" stop-opacity="0"/>
</linearGradient>
<linearGradient id="paint4_linear" x1="69.2704" y1="226.769" x2="86.727" y2="257.005" gradientUnits="userSpaceOnUse">
<stop stop-color="white"/>
<stop offset="1" stop-color="white" stop-opacity="0"/>
</linearGradient>
<linearGradient id="paint5_linear" x1="226.423" y1="180.182" x2="243.879" y2="210.418" gradientUnits="userSpaceOnUse">
<stop stop-color="white"/>
<stop offset="1" stop-color="white" stop-opacity="0"/>
</linearGradient>
<linearGradient id="paint6_linear" x1="83.6609" y1="244.547" x2="64.6995" y2="398.299" gradientUnits="userSpaceOnUse">
<stop stop-color="white"/>
<stop offset="1" stop-color="white" stop-opacity="0"/>
</linearGradient>
<linearGradient id="paint7_linear" x1="198.387" y1="233.404" x2="274.094" y2="292.664" gradientUnits="userSpaceOnUse">
<stop stop-color="white"/>
<stop offset="1" stop-color="white" stop-opacity="0"/>
</linearGradient>
<linearGradient id="paint8_linear" x1="242.889" y1="328.562" x2="265.686" y2="346.549" gradientUnits="userSpaceOnUse">
<stop stop-color="white"/>
<stop offset="1" stop-color="white" stop-opacity="0"/>
</linearGradient>
<linearGradient id="paint9_linear" x1="54.2149" y1="165.457" x2="76.2979" y2="177.763" gradientUnits="userSpaceOnUse">
<stop stop-color="white"/>
<stop offset="1" stop-color="white" stop-opacity="0"/>
</linearGradient>
</defs>
</svg>
