<svg width="108" height="45" viewBox="0 0 108 45" fill="none" xmlns="http://www.w3.org/2000/svg">
<path d="M10.6551 19.6689C10.8351 18.6609 11.1891 17.7669 11.7171 16.9869C12.2571 16.2069 12.9111 15.6069 13.6791 15.1869C14.4471 14.7669 15.2571 14.5569 16.1091 14.5569C16.8531 14.5569 17.4771 14.7069 17.9811 15.0069C18.4971 15.3069 18.8751 15.6849 19.1151 16.1409L19.3671 14.7189H21.9051L20.1411 24.6909H17.6031L17.8731 23.2329C17.4771 23.7009 16.9611 24.0909 16.3251 24.4029C15.7011 24.7029 15.0171 24.8529 14.2731 24.8529C13.5411 24.8529 12.8931 24.6909 12.3291 24.3669C11.7651 24.0309 11.3271 23.5629 11.0151 22.9629C10.7031 22.3509 10.5471 21.6429 10.5471 20.8389C10.5471 20.4669 10.5831 20.0769 10.6551 19.6689ZM18.4851 19.7049C18.5331 19.3929 18.5571 19.1649 18.5571 19.0209C18.5571 18.3129 18.3471 17.7609 17.9271 17.3649C17.5191 16.9689 17.0031 16.7709 16.3791 16.7709C15.9111 16.7709 15.4551 16.8849 15.0111 17.1129C14.5791 17.3409 14.2011 17.6769 13.8771 18.1209C13.5531 18.5529 13.3371 19.0689 13.2291 19.6689C13.1931 19.8969 13.1751 20.1129 13.1751 20.3169C13.1751 21.0369 13.3791 21.6069 13.7871 22.0269C14.1951 22.4349 14.7111 22.6389 15.3351 22.6389C15.8031 22.6389 16.2591 22.5249 16.7031 22.2969C17.1471 22.0569 17.5251 21.7149 17.8371 21.2709C18.1611 20.8269 18.3771 20.3049 18.4851 19.7049ZM26.5084 24.8529C25.7764 24.8529 25.1104 24.7329 24.5104 24.4929C23.9224 24.2409 23.4544 23.8989 23.1064 23.4669C22.7704 23.0229 22.6024 22.5189 22.6024 21.9549C22.6024 21.8709 22.6144 21.7329 22.6384 21.5409H25.0864C25.0504 21.9609 25.1764 22.3029 25.4644 22.5669C25.7524 22.8189 26.1604 22.9449 26.6884 22.9449C27.1684 22.9449 27.5644 22.8609 27.8764 22.6929C28.2004 22.5129 28.3624 22.2549 28.3624 21.9189C28.3624 21.6189 28.2124 21.3789 27.9124 21.1989C27.6244 21.0189 27.1624 20.8149 26.5264 20.5869C25.8904 20.3589 25.3624 20.1369 24.9424 19.9209C24.5224 19.7049 24.1624 19.4049 23.8624 19.0209C23.5624 18.6369 23.4124 18.1509 23.4124 17.5629C23.4124 16.9749 23.5804 16.4529 23.9164 15.9969C24.2644 15.5409 24.7444 15.1869 25.3564 14.9349C25.9684 14.6829 26.6704 14.5569 27.4624 14.5569C28.2184 14.5569 28.8844 14.6829 29.4604 14.9349C30.0364 15.1869 30.4804 15.5409 30.7924 15.9969C31.1164 16.4409 31.2784 16.9509 31.2784 17.5269C31.2784 17.6709 31.2724 17.7789 31.2604 17.8509H28.9204C28.9564 17.4309 28.8364 17.0949 28.5604 16.8429C28.2844 16.5909 27.8824 16.4649 27.3544 16.4649C26.9224 16.4649 26.5684 16.5609 26.2924 16.7529C26.0164 16.9329 25.8784 17.1789 25.8784 17.4909C25.8784 17.8029 26.0344 18.0609 26.3464 18.2649C26.6584 18.4569 27.1384 18.6729 27.7864 18.9129C28.4344 19.1649 28.9504 19.3989 29.3344 19.6149C29.7304 19.8189 30.0724 20.1069 30.3604 20.4789C30.6484 20.8389 30.7924 21.2949 30.7924 21.8469C30.7924 22.4589 30.6064 22.9929 30.2344 23.4489C29.8624 23.9049 29.3524 24.2529 28.7044 24.4929C28.0564 24.7329 27.3244 24.8529 26.5084 24.8529ZM38.0629 19.7049L41.5909 24.6909H38.3329L35.7049 20.4609L34.9489 24.6909H32.4109L34.7689 11.3709H37.3069L35.9749 18.9309L40.0429 14.7189H43.3369L38.0629 19.7049Z" fill="url(#paint0_linear)"/>
<path d="M60.5317 14.5749C61.7557 14.5749 62.7397 14.9529 63.4837 15.7089C64.2397 16.4529 64.6177 17.4969 64.6177 18.8409V24.6909H62.0977V19.1829C62.0977 18.4029 61.8997 17.8089 61.5037 17.4009C61.1077 16.9809 60.5677 16.7709 59.8837 16.7709C59.1997 16.7709 58.6537 16.9809 58.2457 17.4009C57.8497 17.8089 57.6517 18.4029 57.6517 19.1829V24.6909H55.1317V19.1829C55.1317 18.4029 54.9337 17.8089 54.5377 17.4009C54.1417 16.9809 53.6017 16.7709 52.9177 16.7709C52.2217 16.7709 51.6697 16.9809 51.2617 17.4009C50.8657 17.8089 50.6677 18.4029 50.6677 19.1829V24.6909H48.1477V14.7189H50.6677V15.9249C50.9917 15.5049 51.4057 15.1749 51.9097 14.9349C52.4257 14.6949 52.9897 14.5749 53.6017 14.5749C54.3817 14.5749 55.0777 14.7429 55.6897 15.0789C56.3017 15.4029 56.7757 15.8709 57.1117 16.4829C57.4357 15.9069 57.9037 15.4449 58.5157 15.0969C59.1397 14.7489 59.8117 14.5749 60.5317 14.5749ZM76.2791 19.4889C76.2791 19.8489 76.2551 20.1729 76.2071 20.4609H68.9171C68.9771 21.1809 69.2291 21.7449 69.6731 22.1529C70.1171 22.5609 70.6631 22.7649 71.3111 22.7649C72.2471 22.7649 72.9131 22.3629 73.3091 21.5589H76.0271C75.7391 22.5189 75.1871 23.3109 74.3711 23.9349C73.5551 24.5469 72.5531 24.8529 71.3651 24.8529C70.4051 24.8529 69.5411 24.6429 68.7731 24.2229C68.0171 23.7909 67.4231 23.1849 66.9911 22.4049C66.5711 21.6249 66.3611 20.7249 66.3611 19.7049C66.3611 18.6729 66.5711 17.7669 66.9911 16.9869C67.4111 16.2069 67.9991 15.6069 68.7551 15.1869C69.5111 14.7669 70.3811 14.5569 71.3651 14.5569C72.3131 14.5569 73.1591 14.7609 73.9031 15.1689C74.6591 15.5769 75.2411 16.1589 75.6491 16.9149C76.0691 17.6589 76.2791 18.5169 76.2791 19.4889ZM73.6691 18.7689C73.6571 18.1209 73.4231 17.6049 72.9671 17.2209C72.5111 16.8249 71.9531 16.6269 71.2931 16.6269C70.6691 16.6269 70.1411 16.8189 69.7091 17.2029C69.2891 17.5749 69.0311 18.0969 68.9351 18.7689H73.6691ZM80.6384 16.1769C80.9624 15.6969 81.4064 15.3069 81.9704 15.0069C82.5464 14.7069 83.2004 14.5569 83.9324 14.5569C84.7844 14.5569 85.5524 14.7669 86.2364 15.1869C86.9324 15.6069 87.4784 16.2069 87.8744 16.9869C88.2824 17.7549 88.4864 18.6489 88.4864 19.6689C88.4864 20.6889 88.2824 21.5949 87.8744 22.3869C87.4784 23.1669 86.9324 23.7729 86.2364 24.2049C85.5524 24.6369 84.7844 24.8529 83.9324 24.8529C83.1884 24.8529 82.5344 24.7089 81.9704 24.4209C81.4184 24.1209 80.9744 23.7369 80.6384 23.2689V24.6909H78.1184V11.3709H80.6384V16.1769ZM85.9124 19.6689C85.9124 19.0689 85.7864 18.5529 85.5344 18.1209C85.2944 17.6769 84.9704 17.3409 84.5624 17.1129C84.1664 16.8849 83.7344 16.7709 83.2664 16.7709C82.8104 16.7709 82.3784 16.8909 81.9704 17.1309C81.5744 17.3589 81.2504 17.6949 80.9984 18.1389C80.7584 18.5829 80.6384 19.1049 80.6384 19.7049C80.6384 20.3049 80.7584 20.8269 80.9984 21.2709C81.2504 21.7149 81.5744 22.0569 81.9704 22.2969C82.3784 22.5249 82.8104 22.6389 83.2664 22.6389C83.7344 22.6389 84.1664 22.5189 84.5624 22.2789C84.9704 22.0389 85.2944 21.6969 85.5344 21.2529C85.7864 20.8089 85.9124 20.2809 85.9124 19.6689ZM92.8377 16.2669C93.1617 15.7389 93.5817 15.3249 94.0977 15.0249C94.6257 14.7249 95.2257 14.5749 95.8977 14.5749V17.2209H95.2317C94.4397 17.2209 93.8397 17.4069 93.4317 17.7789C93.0357 18.1509 92.8377 18.7989 92.8377 19.7229V24.6909H90.3177V14.7189H92.8377V16.2669ZM102.023 24.8529C101.063 24.8529 100.199 24.6429 99.431 24.2229C98.663 23.7909 98.057 23.1849 97.613 22.4049C97.181 21.6249 96.965 20.7249 96.965 19.7049C96.965 18.6849 97.187 17.7849 97.631 17.0049C98.087 16.2249 98.705 15.6249 99.485 15.2049C100.265 14.7729 101.135 14.5569 102.095 14.5569C103.055 14.5569 103.925 14.7729 104.705 15.2049C105.485 15.6249 106.097 16.2249 106.541 17.0049C106.997 17.7849 107.225 18.6849 107.225 19.7049C107.225 20.7249 106.991 21.6249 106.523 22.4049C106.067 23.1849 105.443 23.7909 104.651 24.2229C103.871 24.6429 102.995 24.8529 102.023 24.8529ZM102.023 22.6569C102.479 22.6569 102.905 22.5489 103.301 22.3329C103.709 22.1049 104.033 21.7689 104.273 21.3249C104.513 20.8809 104.633 20.3409 104.633 19.7049C104.633 18.7569 104.381 18.0309 103.877 17.5269C103.385 17.0109 102.779 16.7529 102.059 16.7529C101.339 16.7529 100.733 17.0109 100.241 17.5269C99.761 18.0309 99.521 18.7569 99.521 19.7049C99.521 20.6529 99.755 21.3849 100.223 21.9009C100.703 22.4049 101.303 22.6569 102.023 22.6569Z" fill="#29292e"/>
<path d="M47.1687 9.66662V5.40739C47.1687 3.52554 45.5826 2 43.6261 2H5.5426C3.58604 2 1.99995 3.52554 1.99995 5.40739V29.2591C1.99995 31.1409 3.58605 32.6665 5.5426 32.6665H11.7422L9.67031 41.9662C9.48922 42.7791 10.5019 43.3345 11.137 42.7707L20.5988 34.3702H43.6261C45.5826 34.3702 47.1687 32.8446 47.1687 30.9628V29.2591" stroke="url(#paint1_linear)" stroke-width="3"/>
<defs>
<linearGradient id="paint0_linear" x1="9.85718" y1="11.6909" x2="12.6203" y2="35.322" gradientUnits="userSpaceOnUse">
<stop stop-color="#4347FE"/>
<stop offset="1" stop-color="#FF59F8"/>
</linearGradient>
<linearGradient id="paint1_linear" x1="47.1687" y1="2" x2="11.7085" y2="47.6459" gradientUnits="userSpaceOnUse">
<stop stop-color="#4347FE"/>
<stop offset="1" stop-color="#FF59F8"/>
</linearGradient>
</defs>
</svg>
