<svg width="32" height="32" viewBox="0 0 32 32" fill="none" xmlns="http://www.w3.org/2000/svg">
<circle cx="16" cy="16" r="16" fill="#5C5FFE"/>
<path d="M20.9229 21.538V20.3072C20.9229 19.6544 20.6636 19.0283 20.202 18.5667C19.7403 18.105 19.1142 17.8457 18.4614 17.8457H13.5383C12.8855 17.8457 12.2594 18.105 11.7977 18.5667C11.3361 19.0283 11.0768 19.6544 11.0768 20.3072V21.538" stroke="var(--avatar)" stroke-width="1.5" stroke-linecap="round" stroke-linejoin="round"/>
<path d="M15.9999 15.384C17.3593 15.384 18.4614 14.2819 18.4614 12.9225C18.4614 11.563 17.3593 10.4609 15.9999 10.4609C14.6404 10.4609 13.5383 11.563 13.5383 12.9225C13.5383 14.2819 14.6404 15.384 15.9999 15.384Z" stroke="var(--avatar)" stroke-width="1.5" stroke-linecap="round" stroke-linejoin="round"/>
</svg>
